<?xml version="1.0" encoding="utf-8"?>
<!-- Generator: Adobe Illustrator 25.0.0, SVG Export Plug-In . SVG Version: 6.00 Build 0)  -->
<svg version="1.1" xmlns="http://www.w3.org/2000/svg" xmlns:xlink="http://www.w3.org/1999/xlink" x="0px" y="0px"
	 viewBox="0 0 1427 390" enable-background="new 0 0 1427 390" xml:space="preserve">
<g id="Headers">
	<g id="Layer_10">
		<path fill="#F8F8F8" d="M-4002.99-231.44l-110.33-166.45l59.48-10.48l9.83-55.74l-169.9-156.46l111.08,163.2l-59.48,10.48
			l-10.49,59.49L-4002.99-231.44 M-3862.37-520.2c12.26,5.31,22.59,12.85,30.97,22.61l-23.71,23.06
			c-5.62-7.17-12.5-12.7-20.67-16.58s-17-5.83-26.5-5.83c-11.49,0-21.92,2.7-31.29,8.1c-9.37,5.4-16.78,12.98-22.22,22.74
			c-5.44,9.85-8.16,20.69-8.16,32.52c0,11.75,2.5,22.35,7.51,31.81c5.01,9.46,12.09,16.87,21.25,22.22
			c8.81,5.36,18.92,8.03,30.32,8.03c14.86,0,26.82-3.54,35.89-10.62c9.07-7.08,14.86-17.45,17.36-31.1h-48.07l12.83-30.45h70.23
			l0.39,8.68c0,17.8-3.61,33.84-10.82,48.14c-7.21,14.3-17.38,25.55-30.51,33.75c-13.3,8.47-29.07,12.7-47.29,12.7
			c-16.59,0-31.92-3.82-46-11.47c-14.08-7.64-25.31-18.25-33.69-31.81c-8.81-14.17-13.22-30.79-13.22-49.89
			c0-17.54,4.12-33.54,12.38-48.01c8.25-14.47,19.76-25.89,34.53-34.27c14.68-8.21,30.88-12.31,48.59-12.31
			C-3887.94-528.17-3874.64-525.51-3862.37-520.2z M-3717.51-434.62c-1.38-1.99-4.3-3.65-8.75-4.99c-4.45-1.34-9.09-2.01-13.93-2.01
			c-5.62,0-10.47,1.17-14.58,3.5c-4.1,2.33-7.28,5.79-9.52,10.37c-2.33,4.67-3.5,10.19-3.5,16.59v70.23h-30.97v-119.08l30.71-13.22
			v14.77c8.03-8.55,19.39-12.83,34.08-12.83c7.17,0,12.65,0.74,16.46,2.2V-434.62z M-3614.63-341.84v-13.22
			c-9.24,9.42-21.21,14.12-35.89,14.12c-11.49,0-21.98-2.83-31.49-8.49c-9.5-5.66-17.02-13.54-22.55-23.65
			c-5.44-9.85-8.16-20.9-8.16-33.17c0-12.09,2.68-23.15,8.03-33.17c5.35-10.02,12.83-17.88,22.42-23.58
			c9.5-5.7,20.08-8.55,31.75-8.55c7.26,0,13.93,1.21,20.02,3.63c6.09,2.42,11.38,6,15.87,10.75v-2.07l30.32-13.22v130.61H-3614.63z
			 M-3666.27-438.25c-5.23,3.11-9.31,7.43-12.24,12.96c-2.94,5.53-4.41,11.88-4.41,19.05c0,7.08,1.45,13.39,4.34,18.92
			c2.89,5.53,6.97,9.85,12.25,12.96v0.13c5.01,3.11,10.93,4.66,17.75,4.66c6.56,0,12.46-1.55,17.69-4.66
			c5.22-3.11,9.31-7.47,12.24-13.09c2.94-5.53,4.41-11.83,4.41-18.92c0-7-1.45-13.3-4.34-18.92c-2.89-5.61-6.98-9.98-12.24-13.09
			c-5.27-3.11-11.19-4.66-17.75-4.66C-3655.15-442.91-3661.04-441.36-3666.27-438.25z M-3469.06-463.25
			c9.63,5.7,17.21,13.65,22.74,23.84c5.44,10.02,8.16,21.25,8.16,33.69c0,12.18-2.7,23.32-8.1,33.43
			c-5.4,10.11-12.94,18.01-22.61,23.71c-9.42,5.87-20.08,8.81-32,8.81c-15.03,0-27.08-4.79-36.15-14.38v64.79h-30.45v-170.26
			l30.45-13.22v15.42c4.58-4.75,9.93-8.34,16.07-10.75c6.13-2.42,12.83-3.63,20.08-3.63
			C-3489.29-471.81-3478.69-468.96-3469.06-463.25z M-3520.56-438.12c-5.27,3.11-9.42,7.52-12.44,13.22
			c-3.03,5.79-4.54,12.18-4.54,19.18c0,7.08,1.47,13.43,4.41,19.05c2.94,5.62,7.08,10.02,12.44,13.22
			c5.27,3.11,11.23,4.66,17.88,4.66c6.65,0,12.61-1.53,17.88-4.6c5.27-3.07,9.41-7.45,12.44-13.15c2.94-5.53,4.41-11.92,4.41-19.18
			c0-7.08-1.45-13.45-4.34-19.11c-2.9-5.66-7.02-10.08-12.38-13.28c-5.27-3.11-11.27-4.66-18.01-4.66
			C-3509.38-442.78-3515.3-441.23-3520.56-438.12z M-3392.81-457.81c4.32-4.66,9.52-8.23,15.61-10.69s12.85-3.69,20.28-3.69
			c10.02,0,19.07,2.18,27.15,6.54c8.08,4.36,14.36,10.48,18.85,18.33c4.32,7.95,6.43,16.8,6.35,26.56l-1.81,79.82h-31.1l1.81-71.14
			c0.26-9.59-1.99-17.06-6.74-22.42c-4.75-5.35-11.49-8.03-20.21-8.03c-5.96,0-11.21,1.25-15.74,3.76
			c-4.54,2.51-8.06,6.09-10.56,10.76c-2.59,4.75-3.89,10.19-3.89,16.33v70.75h-31.1v-175.05l31.1-14.77V-457.81z M-3285-497.33
			l31.1-13.09v27.6l-31.1,13.09V-497.33z M-3285-460.14l31.1-13.09v131h-31.1V-460.14z M-3137.16-428.14
			c-5.27-5.61-10.41-9.67-15.42-12.18c-5.01-2.5-10.54-3.76-16.59-3.76c-6.48,0-12.33,1.58-17.56,4.73
			c-5.23,3.15-9.44,7.67-12.63,13.54v-0.13c-3.02,6.05-4.54,12.61-4.54,19.7c0,7.08,1.49,13.5,4.47,19.24
			c2.98,5.75,7.15,10.35,12.5,13.8c5.35,3.2,11.27,4.79,17.75,4.79c5.96,0,11.77-1.4,17.43-4.21c5.66-2.81,10.52-6.72,14.58-11.73
			v37.96c-9.33,4.92-19.74,7.39-31.23,7.39c-12.87,0-24.42-2.83-34.66-8.49c-10.24-5.66-18.25-13.67-24.04-24.04
			c-5.7-10.11-8.55-21.68-8.55-34.73c0-12.87,2.85-24.44,8.55-34.73c5.7-10.28,13.69-18.31,23.97-24.1
			c10.28-5.61,21.85-8.42,34.73-8.42c11.49,0,21.9,2.46,31.23,7.39V-428.14z M-3120.97-378l4.79-1.17
			c5.35,4.06,11.21,7.04,17.56,8.94c6.35,1.9,13.67,2.85,21.96,2.85c5.53,0,10.41-0.54,14.64-1.62c4.23-1.08,7.52-2.57,9.85-4.47
			c2.33-1.9,3.5-4.02,3.5-6.35c0-5.87-6.44-9.76-19.31-11.66l-12.7-1.94c-13.74-2.16-24.21-6.46-31.42-12.89
			c-7.21-6.43-10.82-14.75-10.82-24.94c0-7.95,2.35-15.05,7.06-21.31c4.71-6.26,11.38-11.08,20.02-14.45
			c8.29-3.19,17.54-4.79,27.73-4.79c15.55,0,29.54,2.81,41.98,8.42l-0.52,31.36c-5.62-3.8-12.16-6.87-19.63-9.2
			c-7.47-2.33-14.45-3.5-20.93-3.5c-4.67,0-8.86,0.56-12.57,1.68c-3.72,1.12-6.7,2.68-8.94,4.66h0.13c-1.9,1.81-2.85,3.76-2.85,5.83
			c0,2.77,1.34,4.95,4.02,6.54c2.68,1.6,7.43,3,14.25,4.21l12.57,2.2c28.85,5.01,43.28,17.71,43.28,38.09
			c0,8.21-2.61,15.48-7.84,21.83c-5.23,6.35-12.59,11.21-22.09,14.58c-8.81,3.2-19,4.79-30.58,4.79c-7.95,0-15.74-0.89-23.39-2.66
			c-7.65-1.77-14.58-4.34-20.8-7.71l0.39-26.17L-3120.97-378z"/>
	</g>
	<g id="Layer_11">
		<path d="M-4002.99-1331.44l-110.33-166.45l59.48-10.48l9.83-55.74l-169.9-156.46l111.08,163.2l-59.48,10.48l-10.49,59.49
			L-4002.99-1331.44 M-3862.37-1620.2c12.26,5.31,22.59,12.85,30.97,22.61l-23.71,23.06c-5.62-7.17-12.5-12.7-20.67-16.58
			s-17-5.83-26.5-5.83c-11.49,0-21.92,2.7-31.29,8.1c-9.37,5.4-16.78,12.98-22.22,22.74c-5.44,9.85-8.16,20.69-8.16,32.52
			c0,11.75,2.5,22.35,7.51,31.81c5.01,9.46,12.09,16.87,21.25,22.22c8.81,5.36,18.92,8.03,30.32,8.03
			c14.86,0,26.82-3.54,35.89-10.62c9.07-7.08,14.86-17.45,17.36-31.1h-48.07l12.83-30.45h70.23l0.39,8.68
			c0,17.8-3.61,33.84-10.82,48.14c-7.21,14.3-17.38,25.55-30.51,33.75c-13.3,8.47-29.07,12.7-47.29,12.7
			c-16.59,0-31.92-3.82-46-11.47c-14.08-7.64-25.31-18.25-33.69-31.81c-8.81-14.17-13.22-30.79-13.22-49.89
			c0-17.54,4.12-33.54,12.38-48.01c8.25-14.47,19.76-25.89,34.53-34.27c14.68-8.21,30.88-12.31,48.59-12.31
			C-3887.94-1628.17-3874.64-1625.51-3862.37-1620.2z M-3717.51-1534.62c-1.38-1.99-4.3-3.65-8.75-4.99
			c-4.45-1.34-9.09-2.01-13.93-2.01c-5.62,0-10.47,1.17-14.58,3.5c-4.1,2.33-7.28,5.79-9.52,10.37c-2.33,4.67-3.5,10.19-3.5,16.59
			v70.23h-30.97v-119.08l30.71-13.22v14.77c8.03-8.55,19.39-12.83,34.08-12.83c7.17,0,12.65,0.74,16.46,2.2V-1534.62z
			 M-3614.63-1441.84v-13.22c-9.24,9.42-21.21,14.12-35.89,14.12c-11.49,0-21.98-2.83-31.49-8.49c-9.5-5.66-17.02-13.54-22.55-23.65
			c-5.44-9.85-8.16-20.9-8.16-33.17c0-12.09,2.68-23.15,8.03-33.17c5.35-10.02,12.83-17.88,22.42-23.58
			c9.5-5.7,20.08-8.55,31.75-8.55c7.26,0,13.93,1.21,20.02,3.63c6.09,2.42,11.38,6,15.87,10.75v-2.07l30.32-13.22v130.61H-3614.63z
			 M-3666.27-1538.25c-5.23,3.11-9.31,7.43-12.24,12.96c-2.94,5.53-4.41,11.88-4.41,19.05c0,7.08,1.45,13.39,4.34,18.92
			c2.89,5.53,6.97,9.85,12.25,12.96v0.13c5.01,3.11,10.93,4.66,17.75,4.66c6.56,0,12.46-1.55,17.69-4.66
			c5.22-3.11,9.31-7.47,12.24-13.09c2.94-5.53,4.41-11.83,4.41-18.92c0-7-1.45-13.3-4.34-18.92c-2.89-5.61-6.98-9.98-12.24-13.09
			c-5.27-3.11-11.19-4.66-17.75-4.66C-3655.15-1542.91-3661.04-1541.36-3666.27-1538.25z M-3469.06-1563.25
			c9.63,5.7,17.21,13.65,22.74,23.84c5.44,10.02,8.16,21.25,8.16,33.69c0,12.18-2.7,23.32-8.1,33.43
			c-5.4,10.11-12.94,18.01-22.61,23.71c-9.42,5.87-20.08,8.81-32,8.81c-15.03,0-27.08-4.79-36.15-14.38v64.79h-30.45v-170.26
			l30.45-13.22v15.42c4.58-4.75,9.93-8.34,16.07-10.75c6.13-2.42,12.83-3.63,20.08-3.63
			C-3489.29-1571.81-3478.69-1568.96-3469.06-1563.25z M-3520.56-1538.12c-5.27,3.11-9.42,7.52-12.44,13.22
			c-3.03,5.79-4.54,12.18-4.54,19.18c0,7.08,1.47,13.43,4.41,19.05c2.94,5.62,7.08,10.02,12.44,13.22
			c5.27,3.11,11.23,4.66,17.88,4.66c6.65,0,12.61-1.53,17.88-4.6c5.27-3.07,9.41-7.45,12.44-13.15c2.94-5.53,4.41-11.92,4.41-19.18
			c0-7.08-1.45-13.45-4.34-19.11c-2.9-5.66-7.02-10.08-12.38-13.28c-5.27-3.11-11.27-4.66-18.01-4.66
			C-3509.38-1542.78-3515.3-1541.23-3520.56-1538.12z M-3392.81-1557.81c4.32-4.66,9.52-8.23,15.61-10.69s12.85-3.69,20.28-3.69
			c10.02,0,19.07,2.18,27.15,6.54c8.08,4.36,14.36,10.48,18.85,18.33c4.32,7.95,6.43,16.8,6.35,26.56l-1.81,79.82h-31.1l1.81-71.14
			c0.26-9.59-1.99-17.06-6.74-22.42c-4.75-5.35-11.49-8.03-20.21-8.03c-5.96,0-11.21,1.25-15.74,3.76
			c-4.54,2.51-8.06,6.09-10.56,10.76c-2.59,4.75-3.89,10.19-3.89,16.33v70.75h-31.1v-175.05l31.1-14.77V-1557.81z M-3285-1597.33
			l31.1-13.09v27.6l-31.1,13.09V-1597.33z M-3285-1560.14l31.1-13.09v131h-31.1V-1560.14z M-3137.16-1528.14
			c-5.27-5.61-10.41-9.67-15.42-12.18c-5.01-2.5-10.54-3.76-16.59-3.76c-6.48,0-12.33,1.58-17.56,4.73
			c-5.23,3.15-9.44,7.67-12.63,13.54v-0.13c-3.02,6.05-4.54,12.61-4.54,19.7c0,7.08,1.49,13.5,4.47,19.24
			c2.98,5.75,7.15,10.35,12.5,13.8c5.35,3.2,11.27,4.79,17.75,4.79c5.96,0,11.77-1.4,17.43-4.21c5.66-2.81,10.52-6.72,14.58-11.73
			v37.96c-9.33,4.92-19.74,7.39-31.23,7.39c-12.87,0-24.42-2.83-34.66-8.49c-10.24-5.66-18.25-13.67-24.04-24.04
			c-5.7-10.11-8.55-21.68-8.55-34.73c0-12.87,2.85-24.44,8.55-34.73c5.7-10.28,13.69-18.31,23.97-24.1
			c10.28-5.61,21.85-8.42,34.73-8.42c11.49,0,21.9,2.46,31.23,7.39V-1528.14z M-3120.97-1478l4.79-1.17
			c5.35,4.06,11.21,7.04,17.56,8.94c6.35,1.9,13.67,2.85,21.96,2.85c5.53,0,10.41-0.54,14.64-1.62c4.23-1.08,7.52-2.57,9.85-4.47
			c2.33-1.9,3.5-4.02,3.5-6.35c0-5.87-6.44-9.76-19.31-11.66l-12.7-1.94c-13.74-2.16-24.21-6.46-31.42-12.89
			c-7.21-6.43-10.82-14.75-10.82-24.94c0-7.95,2.35-15.05,7.06-21.31c4.71-6.26,11.38-11.08,20.02-14.45
			c8.29-3.19,17.54-4.79,27.73-4.79c15.55,0,29.54,2.81,41.98,8.42l-0.52,31.36c-5.62-3.8-12.16-6.87-19.63-9.2
			c-7.47-2.33-14.45-3.5-20.93-3.5c-4.67,0-8.86,0.56-12.57,1.68c-3.72,1.12-6.7,2.68-8.94,4.66h0.13c-1.9,1.81-2.85,3.76-2.85,5.83
			c0,2.77,1.34,4.95,4.02,6.54c2.68,1.6,7.43,3,14.25,4.21l12.57,2.2c28.85,5.01,43.28,17.71,43.28,38.09
			c0,8.21-2.61,15.48-7.84,21.83c-5.23,6.35-12.59,11.21-22.09,14.58c-8.81,3.2-19,4.79-30.58,4.79c-7.95,0-15.74-0.89-23.39-2.66
			c-7.65-1.77-14.58-4.34-20.8-7.71l0.39-26.17L-3120.97-1478z"/>
	</g>
	<g id="Layer_12">
		<linearGradient id="SVGID_1_" gradientUnits="userSpaceOnUse" x1="-4213.915" y1="-2626" x2="-3017.3086" y2="-2626">
			<stop  offset="0" style="stop-color:#40D138"/>
			<stop  offset="1" style="stop-color:#217E23"/>
		</linearGradient>
		<path fill="url(#SVGID_1_)" d="M-4002.99-2431.44l-110.33-166.45l59.48-10.48l9.83-55.74l-169.9-156.46l111.08,163.2l-59.48,10.48
			l-10.49,59.49L-4002.99-2431.44 M-3862.37-2720.2c12.26,5.31,22.59,12.85,30.97,22.61l-23.71,23.06
			c-5.62-7.17-12.5-12.7-20.67-16.58s-17-5.83-26.5-5.83c-11.49,0-21.92,2.7-31.29,8.1c-9.37,5.4-16.78,12.98-22.22,22.74
			c-5.44,9.85-8.16,20.69-8.16,32.52c0,11.75,2.5,22.35,7.51,31.81c5.01,9.46,12.09,16.87,21.25,22.22
			c8.81,5.36,18.92,8.03,30.32,8.03c14.86,0,26.82-3.54,35.89-10.62c9.07-7.08,14.86-17.45,17.36-31.1h-48.07l12.83-30.45h70.23
			l0.39,8.68c0,17.8-3.61,33.84-10.82,48.14c-7.21,14.3-17.38,25.55-30.51,33.75c-13.3,8.47-29.07,12.7-47.29,12.7
			c-16.59,0-31.92-3.82-46-11.47c-14.08-7.64-25.31-18.25-33.69-31.81c-8.81-14.17-13.22-30.79-13.22-49.89
			c0-17.54,4.12-33.54,12.38-48.01c8.25-14.47,19.76-25.89,34.53-34.27c14.68-8.21,30.88-12.31,48.59-12.31
			C-3887.94-2728.17-3874.64-2725.51-3862.37-2720.2z M-3717.51-2634.62c-1.38-1.99-4.3-3.65-8.75-4.99
			c-4.45-1.34-9.09-2.01-13.93-2.01c-5.62,0-10.47,1.17-14.58,3.5c-4.1,2.33-7.28,5.79-9.52,10.37c-2.33,4.67-3.5,10.19-3.5,16.59
			v70.23h-30.97v-119.08l30.71-13.22v14.77c8.03-8.55,19.39-12.83,34.08-12.83c7.17,0,12.65,0.74,16.46,2.2V-2634.62z
			 M-3614.63-2541.84v-13.22c-9.24,9.42-21.21,14.12-35.89,14.12c-11.49,0-21.98-2.83-31.49-8.49c-9.5-5.66-17.02-13.54-22.55-23.65
			c-5.44-9.85-8.16-20.9-8.16-33.17c0-12.09,2.68-23.15,8.03-33.17c5.35-10.02,12.83-17.88,22.42-23.58
			c9.5-5.7,20.08-8.55,31.75-8.55c7.26,0,13.93,1.21,20.02,3.63c6.09,2.42,11.38,6,15.87,10.75v-2.07l30.32-13.22v130.61H-3614.63z
			 M-3666.27-2638.25c-5.23,3.11-9.31,7.43-12.24,12.96c-2.94,5.53-4.41,11.88-4.41,19.05c0,7.08,1.45,13.39,4.34,18.92
			c2.89,5.53,6.97,9.85,12.25,12.96v0.13c5.01,3.11,10.93,4.66,17.75,4.66c6.56,0,12.46-1.55,17.69-4.66
			c5.22-3.11,9.31-7.47,12.24-13.09c2.94-5.53,4.41-11.83,4.41-18.92c0-7-1.45-13.3-4.34-18.92c-2.89-5.61-6.98-9.98-12.24-13.09
			c-5.27-3.11-11.19-4.66-17.75-4.66C-3655.15-2642.91-3661.04-2641.36-3666.27-2638.25z M-3469.06-2663.25
			c9.63,5.7,17.21,13.65,22.74,23.84c5.44,10.02,8.16,21.25,8.16,33.69c0,12.18-2.7,23.32-8.1,33.43
			c-5.4,10.11-12.94,18.01-22.61,23.71c-9.42,5.87-20.08,8.81-32,8.81c-15.03,0-27.08-4.79-36.15-14.38v64.79h-30.45v-170.26
			l30.45-13.22v15.42c4.58-4.75,9.93-8.34,16.07-10.75c6.13-2.42,12.83-3.63,20.08-3.63
			C-3489.29-2671.81-3478.69-2668.96-3469.06-2663.25z M-3520.56-2638.12c-5.27,3.11-9.42,7.52-12.44,13.22
			c-3.03,5.79-4.54,12.18-4.54,19.18c0,7.08,1.47,13.43,4.41,19.05c2.94,5.62,7.08,10.02,12.44,13.22
			c5.27,3.11,11.23,4.66,17.88,4.66c6.65,0,12.61-1.53,17.88-4.6c5.27-3.07,9.41-7.45,12.44-13.15c2.94-5.53,4.41-11.92,4.41-19.18
			c0-7.08-1.45-13.45-4.34-19.11c-2.9-5.66-7.02-10.08-12.38-13.28c-5.27-3.11-11.27-4.66-18.01-4.66
			C-3509.38-2642.78-3515.3-2641.23-3520.56-2638.12z M-3392.81-2657.81c4.32-4.66,9.52-8.23,15.61-10.69s12.85-3.69,20.28-3.69
			c10.02,0,19.07,2.18,27.15,6.54c8.08,4.36,14.36,10.48,18.85,18.33c4.32,7.95,6.43,16.8,6.35,26.56l-1.81,79.82h-31.1l1.81-71.14
			c0.26-9.59-1.99-17.06-6.74-22.42c-4.75-5.35-11.49-8.03-20.21-8.03c-5.96,0-11.21,1.25-15.74,3.76
			c-4.54,2.51-8.06,6.09-10.56,10.76c-2.59,4.75-3.89,10.19-3.89,16.33v70.75h-31.1v-175.05l31.1-14.77V-2657.81z M-3285-2697.33
			l31.1-13.09v27.6l-31.1,13.09V-2697.33z M-3285-2660.14l31.1-13.09v131h-31.1V-2660.14z M-3137.16-2628.14
			c-5.27-5.61-10.41-9.67-15.42-12.18c-5.01-2.5-10.54-3.76-16.59-3.76c-6.48,0-12.33,1.58-17.56,4.73
			c-5.23,3.15-9.44,7.67-12.63,13.54v-0.13c-3.02,6.05-4.54,12.61-4.54,19.7c0,7.08,1.49,13.5,4.47,19.24
			c2.98,5.75,7.15,10.35,12.5,13.8c5.35,3.2,11.27,4.79,17.75,4.79c5.96,0,11.77-1.4,17.43-4.21c5.66-2.81,10.52-6.72,14.58-11.73
			v37.96c-9.33,4.92-19.74,7.39-31.23,7.39c-12.87,0-24.42-2.83-34.66-8.49c-10.24-5.66-18.25-13.67-24.04-24.04
			c-5.7-10.11-8.55-21.68-8.55-34.73c0-12.87,2.85-24.44,8.55-34.73c5.7-10.28,13.69-18.31,23.97-24.1
			c10.28-5.61,21.85-8.42,34.73-8.42c11.49,0,21.9,2.46,31.23,7.39V-2628.14z M-3120.97-2578l4.79-1.17
			c5.35,4.06,11.21,7.04,17.56,8.94c6.35,1.9,13.67,2.85,21.96,2.85c5.53,0,10.41-0.54,14.64-1.62c4.23-1.08,7.52-2.57,9.85-4.47
			c2.33-1.9,3.5-4.02,3.5-6.35c0-5.87-6.44-9.76-19.31-11.66l-12.7-1.94c-13.74-2.16-24.21-6.46-31.42-12.89
			c-7.21-6.43-10.82-14.75-10.82-24.94c0-7.95,2.35-15.05,7.06-21.31c4.71-6.26,11.38-11.08,20.02-14.45
			c8.29-3.19,17.54-4.79,27.73-4.79c15.55,0,29.54,2.81,41.98,8.42l-0.52,31.36c-5.62-3.8-12.16-6.87-19.63-9.2
			c-7.47-2.33-14.45-3.5-20.93-3.5c-4.67,0-8.86,0.56-12.57,1.68c-3.72,1.12-6.7,2.68-8.94,4.66h0.13c-1.9,1.81-2.85,3.76-2.85,5.83
			c0,2.77,1.34,4.95,4.02,6.54c2.68,1.6,7.43,3,14.25,4.21l12.57,2.2c28.85,5.01,43.28,17.71,43.28,38.09
			c0,8.21-2.61,15.48-7.84,21.83c-5.23,6.35-12.59,11.21-22.09,14.58c-8.81,3.2-19,4.79-30.58,4.79c-7.95,0-15.74-0.89-23.39-2.66
			c-7.65-1.77-14.58-4.34-20.8-7.71l0.39-26.17L-3120.97-2578z"/>
	</g>
	<g id="Layer_13">
		<path d="M-1290.37-4064.2c12.26,5.31,22.59,12.85,30.97,22.61l-23.71,23.06c-5.62-7.17-12.5-12.7-20.67-16.58s-17-5.83-26.5-5.83
			c-11.49,0-21.92,2.7-31.29,8.1c-9.37,5.4-16.78,12.98-22.22,22.74c-5.44,9.85-8.16,20.69-8.16,32.52c0,11.75,2.5,22.35,7.51,31.81
			c5.01,9.46,12.09,16.87,21.25,22.22c8.81,5.36,18.92,8.03,30.32,8.03c14.86,0,26.82-3.54,35.89-10.62
			c9.07-7.08,14.86-17.45,17.36-31.1h-48.07l12.83-30.45h70.23l0.39,8.68c0,17.8-3.61,33.84-10.82,48.14
			c-7.21,14.3-17.38,25.55-30.51,33.75c-13.3,8.47-29.07,12.7-47.29,12.7c-16.59,0-31.92-3.82-46-11.47
			c-14.08-7.64-25.31-18.25-33.69-31.81c-8.81-14.17-13.22-30.79-13.22-49.89c0-17.54,4.12-33.54,12.38-48.01
			c8.25-14.47,19.76-25.89,34.53-34.27c14.68-8.21,30.88-12.31,48.59-12.31C-1315.94-4072.17-1302.64-4069.51-1290.37-4064.2z
			 M-1145.51-3978.62c-1.38-1.99-4.3-3.65-8.75-4.99c-4.45-1.34-9.09-2.01-13.93-2.01c-5.62,0-10.47,1.17-14.58,3.5
			c-4.1,2.33-7.28,5.79-9.52,10.37c-2.33,4.67-3.5,10.19-3.5,16.59v70.23h-30.97v-119.08l30.71-13.22v14.77
			c8.03-8.55,19.39-12.83,34.08-12.83c7.17,0,12.65,0.74,16.46,2.2V-3978.62z M-1042.63-3885.84v-13.22
			c-9.24,9.42-21.21,14.12-35.89,14.12c-11.49,0-21.98-2.83-31.49-8.49c-9.5-5.66-17.02-13.54-22.55-23.65
			c-5.44-9.85-8.16-20.9-8.16-33.17c0-12.09,2.68-23.15,8.03-33.17c5.35-10.02,12.83-17.88,22.42-23.58
			c9.5-5.7,20.08-8.55,31.75-8.55c7.26,0,13.93,1.21,20.02,3.63c6.09,2.42,11.38,6,15.87,10.75v-2.07l30.32-13.22v130.61H-1042.63z
			 M-1094.27-3982.25c-5.23,3.11-9.31,7.43-12.24,12.96c-2.94,5.53-4.41,11.88-4.41,19.05c0,7.08,1.45,13.39,4.34,18.92
			c2.89,5.53,6.97,9.85,12.25,12.96v0.13c5.01,3.11,10.93,4.66,17.75,4.66c6.56,0,12.46-1.55,17.69-4.66
			c5.22-3.11,9.31-7.47,12.24-13.09c2.94-5.53,4.41-11.83,4.41-18.92c0-7-1.45-13.3-4.34-18.92c-2.89-5.61-6.98-9.98-12.24-13.09
			c-5.27-3.11-11.19-4.66-17.75-4.66C-1083.15-3986.91-1089.04-3985.36-1094.27-3982.25z M-897.06-4007.25
			c9.63,5.7,17.21,13.65,22.74,23.84c5.44,10.02,8.16,21.25,8.16,33.69c0,12.18-2.7,23.32-8.1,33.43
			c-5.4,10.11-12.94,18.01-22.61,23.71c-9.42,5.87-20.08,8.81-32,8.81c-15.03,0-27.08-4.79-36.15-14.38v64.79h-30.45v-170.26
			l30.45-13.22v15.42c4.58-4.75,9.93-8.34,16.07-10.75c6.13-2.42,12.83-3.63,20.08-3.63
			C-917.29-4015.81-906.69-4012.96-897.06-4007.25z M-948.56-3982.12c-5.27,3.11-9.42,7.52-12.44,13.22
			c-3.03,5.79-4.54,12.18-4.54,19.18c0,7.08,1.47,13.43,4.41,19.05c2.94,5.62,7.08,10.02,12.44,13.22
			c5.27,3.11,11.23,4.66,17.88,4.66c6.65,0,12.61-1.53,17.88-4.6c5.27-3.07,9.41-7.45,12.44-13.15c2.94-5.53,4.41-11.92,4.41-19.18
			c0-7.08-1.45-13.45-4.34-19.11c-2.9-5.66-7.02-10.08-12.38-13.28c-5.27-3.11-11.27-4.66-18.01-4.66
			C-937.38-3986.78-943.3-3985.23-948.56-3982.12z M-820.81-4001.81c4.32-4.66,9.52-8.23,15.61-10.69s12.85-3.69,20.28-3.69
			c10.02,0,19.07,2.18,27.15,6.54c8.08,4.36,14.36,10.48,18.85,18.33c4.32,7.95,6.43,16.8,6.35,26.56l-1.81,79.82h-31.1l1.81-71.14
			c0.26-9.59-1.99-17.06-6.74-22.42c-4.75-5.35-11.49-8.03-20.21-8.03c-5.96,0-11.21,1.25-15.74,3.76
			c-4.54,2.51-8.06,6.09-10.56,10.76c-2.59,4.75-3.89,10.19-3.89,16.33v70.75h-31.1v-175.05l31.1-14.77V-4001.81z M-713-4041.33
			l31.1-13.09v27.6l-31.1,13.09V-4041.33z M-713-4004.14l31.1-13.09v131H-713V-4004.14z M-565.16-3972.14
			c-5.27-5.61-10.41-9.67-15.42-12.18c-5.01-2.5-10.54-3.76-16.59-3.76c-6.48,0-12.33,1.58-17.56,4.73
			c-5.23,3.15-9.44,7.67-12.63,13.54v-0.13c-3.02,6.05-4.54,12.61-4.54,19.7c0,7.08,1.49,13.5,4.47,19.24
			c2.98,5.75,7.15,10.35,12.5,13.8c5.35,3.2,11.27,4.79,17.75,4.79c5.96,0,11.77-1.4,17.43-4.21c5.66-2.81,10.52-6.72,14.58-11.73
			v37.96c-9.33,4.92-19.74,7.39-31.23,7.39c-12.87,0-24.42-2.83-34.66-8.49c-10.24-5.66-18.25-13.67-24.04-24.04
			c-5.7-10.11-8.55-21.68-8.55-34.73c0-12.87,2.85-24.44,8.55-34.73c5.7-10.28,13.69-18.31,23.97-24.1
			c10.28-5.61,21.85-8.42,34.73-8.42c11.49,0,21.9,2.46,31.23,7.39V-3972.14z M-548.97-3922l4.79-1.17
			c5.35,4.06,11.21,7.04,17.56,8.94c6.35,1.9,13.67,2.85,21.96,2.85c5.53,0,10.41-0.54,14.64-1.62c4.23-1.08,7.52-2.57,9.85-4.47
			c2.33-1.9,3.5-4.02,3.5-6.35c0-5.87-6.44-9.76-19.31-11.66l-12.7-1.94c-13.74-2.16-24.21-6.46-31.42-12.89
			c-7.21-6.43-10.82-14.75-10.82-24.94c0-7.95,2.35-15.05,7.06-21.31c4.71-6.26,11.38-11.08,20.02-14.45
			c8.29-3.19,17.54-4.79,27.73-4.79c15.55,0,29.54,2.81,41.98,8.42l-0.52,31.36c-5.62-3.8-12.16-6.87-19.63-9.2
			c-7.47-2.33-14.45-3.5-20.93-3.5c-4.67,0-8.86,0.56-12.57,1.68c-3.72,1.12-6.7,2.68-8.94,4.66h0.13c-1.9,1.81-2.85,3.76-2.85,5.83
			c0,2.77,1.34,4.95,4.02,6.54c2.68,1.6,7.43,3,14.25,4.21l12.57,2.2c28.85,5.01,43.28,17.71,43.28,38.09
			c0,8.21-2.61,15.48-7.84,21.83c-5.23,6.35-12.59,11.21-22.09,14.58c-8.81,3.2-19,4.79-30.58,4.79c-7.95,0-15.74-0.89-23.39-2.66
			c-7.65-1.77-14.58-4.34-20.8-7.71l0.39-26.17L-548.97-3922z"/>
		<linearGradient id="SVGID_2_" gradientUnits="userSpaceOnUse" x1="-1636.8273" y1="-3970" x2="-1425.9" y2="-3970">
			<stop  offset="0" style="stop-color:#40D138"/>
			<stop  offset="1" style="stop-color:#217E23"/>
		</linearGradient>
		<polyline fill="url(#SVGID_2_)" points="-1425.9,-3775.44 -1536.23,-3941.88 -1476.76,-3952.36 -1466.93,-4008.1 
			-1636.83,-4164.56 -1525.74,-4001.36 -1585.22,-3990.88 -1595.71,-3931.39 -1425.9,-3775.44 		"/>
		<g>
		</g>
	</g>
	<g id="Layer_9">
		<path fill="#F8F8F8" d="M-3862.37-4917.2c12.26,5.31,22.59,12.85,30.97,22.61l-23.71,23.06c-5.62-7.17-12.5-12.7-20.67-16.58
			s-17-5.83-26.5-5.83c-11.49,0-21.92,2.7-31.29,8.1c-9.37,5.4-16.78,12.98-22.22,22.74c-5.44,9.85-8.16,20.69-8.16,32.52
			c0,11.75,2.5,22.35,7.51,31.81c5.01,9.46,12.09,16.87,21.25,22.22c8.81,5.36,18.92,8.03,30.32,8.03
			c14.86,0,26.82-3.54,35.89-10.62c9.07-7.08,14.86-17.45,17.36-31.1h-48.07l12.83-30.45h70.23l0.39,8.68
			c0,17.8-3.61,33.84-10.82,48.14c-7.21,14.3-17.38,25.55-30.51,33.75c-13.3,8.47-29.07,12.7-47.29,12.7
			c-16.59,0-31.92-3.82-46-11.47c-14.08-7.64-25.31-18.25-33.69-31.81c-8.81-14.17-13.22-30.79-13.22-49.89
			c0-17.54,4.12-33.54,12.38-48.01c8.25-14.47,19.76-25.89,34.53-34.27c14.68-8.21,30.88-12.31,48.59-12.31
			C-3887.94-4925.17-3874.64-4922.51-3862.37-4917.2z M-3717.51-4831.62c-1.38-1.99-4.3-3.65-8.75-4.99
			c-4.45-1.34-9.09-2.01-13.93-2.01c-5.62,0-10.47,1.17-14.58,3.5c-4.1,2.33-7.28,5.79-9.52,10.37c-2.33,4.67-3.5,10.19-3.5,16.59
			v70.23h-30.97v-119.08l30.71-13.22v14.77c8.03-8.55,19.39-12.83,34.08-12.83c7.17,0,12.65,0.74,16.46,2.2V-4831.62z
			 M-3614.63-4738.84v-13.22c-9.24,9.42-21.21,14.12-35.89,14.12c-11.49,0-21.98-2.83-31.49-8.49c-9.5-5.66-17.02-13.54-22.55-23.65
			c-5.44-9.85-8.16-20.9-8.16-33.17c0-12.09,2.68-23.15,8.03-33.17c5.35-10.02,12.83-17.88,22.42-23.58
			c9.5-5.7,20.08-8.55,31.75-8.55c7.26,0,13.93,1.21,20.02,3.63c6.09,2.42,11.38,6,15.87,10.75v-2.07l30.32-13.22v130.61H-3614.63z
			 M-3666.27-4835.25c-5.23,3.11-9.31,7.43-12.24,12.96c-2.94,5.53-4.41,11.88-4.41,19.05c0,7.08,1.45,13.39,4.34,18.92
			c2.89,5.53,6.97,9.85,12.25,12.96v0.13c5.01,3.11,10.93,4.66,17.75,4.66c6.56,0,12.46-1.55,17.69-4.66
			c5.22-3.11,9.31-7.47,12.24-13.09c2.94-5.53,4.41-11.83,4.41-18.92c0-7-1.45-13.3-4.34-18.92c-2.89-5.61-6.98-9.98-12.24-13.09
			c-5.27-3.11-11.19-4.66-17.75-4.66C-3655.15-4839.91-3661.04-4838.36-3666.27-4835.25z M-3469.06-4860.25
			c9.63,5.7,17.21,13.65,22.74,23.84c5.44,10.02,8.16,21.25,8.16,33.69c0,12.18-2.7,23.32-8.1,33.43
			c-5.4,10.11-12.94,18.01-22.61,23.71c-9.42,5.87-20.08,8.81-32,8.81c-15.03,0-27.08-4.79-36.15-14.38v64.79h-30.45v-170.26
			l30.45-13.22v15.42c4.58-4.75,9.93-8.34,16.07-10.75c6.13-2.42,12.83-3.63,20.08-3.63
			C-3489.29-4868.81-3478.69-4865.96-3469.06-4860.25z M-3520.56-4835.12c-5.27,3.11-9.42,7.52-12.44,13.22
			c-3.03,5.79-4.54,12.18-4.54,19.18c0,7.08,1.47,13.43,4.41,19.05c2.94,5.62,7.08,10.02,12.44,13.22
			c5.27,3.11,11.23,4.66,17.88,4.66c6.65,0,12.61-1.53,17.88-4.6c5.27-3.07,9.41-7.45,12.44-13.15c2.94-5.53,4.41-11.92,4.41-19.18
			c0-7.08-1.45-13.45-4.34-19.11c-2.9-5.66-7.02-10.08-12.38-13.28c-5.27-3.11-11.27-4.66-18.01-4.66
			C-3509.38-4839.78-3515.3-4838.23-3520.56-4835.12z M-3392.81-4854.81c4.32-4.66,9.52-8.23,15.61-10.69s12.85-3.69,20.28-3.69
			c10.02,0,19.07,2.18,27.15,6.54c8.08,4.36,14.36,10.48,18.85,18.33c4.32,7.95,6.43,16.8,6.35,26.56l-1.81,79.82h-31.1l1.81-71.14
			c0.26-9.59-1.99-17.06-6.74-22.42c-4.75-5.35-11.49-8.03-20.21-8.03c-5.96,0-11.21,1.25-15.74,3.76
			c-4.54,2.51-8.06,6.09-10.56,10.76c-2.59,4.75-3.89,10.19-3.89,16.33v70.75h-31.1v-175.05l31.1-14.77V-4854.81z M-3285-4894.33
			l31.1-13.09v27.6l-31.1,13.09V-4894.33z M-3285-4857.14l31.1-13.09v131h-31.1V-4857.14z M-3137.16-4825.14
			c-5.27-5.61-10.41-9.67-15.42-12.18c-5.01-2.5-10.54-3.76-16.59-3.76c-6.48,0-12.33,1.58-17.56,4.73
			c-5.23,3.15-9.44,7.67-12.63,13.54v-0.13c-3.02,6.05-4.54,12.61-4.54,19.7c0,7.08,1.49,13.5,4.47,19.24
			c2.98,5.75,7.15,10.35,12.5,13.8c5.35,3.2,11.27,4.79,17.75,4.79c5.96,0,11.77-1.4,17.43-4.21c5.66-2.81,10.52-6.72,14.58-11.73
			v37.96c-9.33,4.92-19.74,7.39-31.23,7.39c-12.87,0-24.42-2.83-34.66-8.49c-10.24-5.66-18.25-13.67-24.04-24.04
			c-5.7-10.11-8.55-21.68-8.55-34.73c0-12.87,2.85-24.44,8.55-34.73c5.7-10.28,13.69-18.31,23.97-24.1
			c10.28-5.61,21.85-8.42,34.73-8.42c11.49,0,21.9,2.46,31.23,7.39V-4825.14z M-3120.97-4775l4.79-1.17
			c5.35,4.06,11.21,7.04,17.56,8.94c6.35,1.9,13.67,2.85,21.96,2.85c5.53,0,10.41-0.54,14.64-1.62c4.23-1.08,7.52-2.57,9.85-4.47
			c2.33-1.9,3.5-4.02,3.5-6.35c0-5.87-6.44-9.76-19.31-11.66l-12.7-1.94c-13.74-2.16-24.21-6.46-31.42-12.89
			c-7.21-6.43-10.82-14.75-10.82-24.94c0-7.95,2.35-15.05,7.06-21.31c4.71-6.26,11.38-11.08,20.02-14.45
			c8.29-3.19,17.54-4.79,27.73-4.79c15.55,0,29.54,2.81,41.98,8.42l-0.52,31.36c-5.62-3.8-12.16-6.87-19.63-9.2
			c-7.47-2.33-14.45-3.5-20.93-3.5c-4.67,0-8.86,0.56-12.57,1.68c-3.72,1.12-6.7,2.68-8.94,4.66h0.13c-1.9,1.81-2.85,3.76-2.85,5.83
			c0,2.77,1.34,4.95,4.02,6.54c2.68,1.6,7.43,3,14.25,4.21l12.57,2.2c28.85,5.01,43.28,17.71,43.28,38.09
			c0,8.21-2.61,15.48-7.84,21.83c-5.23,6.35-12.59,11.21-22.09,14.58c-8.81,3.2-19,4.79-30.58,4.79c-7.95,0-15.74-0.89-23.39-2.66
			c-7.65-1.77-14.58-4.34-20.8-7.71l0.39-26.17L-3120.97-4775z"/>
		<linearGradient id="SVGID_3_" gradientUnits="userSpaceOnUse" x1="-4208.8271" y1="-4823" x2="-3997.8999" y2="-4823">
			<stop  offset="0" style="stop-color:#40D138"/>
			<stop  offset="1" style="stop-color:#217E23"/>
		</linearGradient>
		<polyline fill="url(#SVGID_3_)" points="-3997.9,-4628.44 -4108.23,-4794.88 -4048.76,-4805.36 -4038.93,-4861.1 
			-4208.83,-5017.56 -4097.74,-4854.36 -4157.22,-4843.88 -4167.71,-4784.39 -3997.9,-4628.44 		"/>
	</g>
</g>
<g id="Names">
	<g id="White_1_">
		<g>
			<path fill="#F8F8F8" d="M-5345.84-516.14c12.13,5.26,22.35,12.71,30.64,22.37l-23.46,22.82c-5.56-7.09-12.37-12.56-20.45-16.41
				c-8.08-3.85-16.82-5.77-26.22-5.77c-11.37,0-21.69,2.67-30.96,8.01c-9.27,5.34-16.6,12.84-21.99,22.5
				c-5.38,9.74-8.08,20.47-8.08,32.18c0,11.62,2.48,22.11,7.43,31.47c4.96,9.36,11.96,16.69,21.02,21.99
				c8.72,5.3,18.72,7.95,30,7.95c14.7,0,26.54-3.5,35.51-10.51c8.97-7.01,14.7-17.26,17.18-30.77h-47.56l12.69-30.13h69.48
				l0.38,8.59c0,17.61-3.57,33.48-10.7,47.62c-7.14,14.15-17.2,25.28-30.19,33.4c-13.16,8.38-28.76,12.56-46.79,12.56
				c-16.41,0-31.58-3.78-45.51-11.35c-13.93-7.56-25.04-18.05-33.33-31.47c-8.72-14.02-13.08-30.47-13.08-49.36
				c0-17.35,4.08-33.18,12.24-47.5c8.16-14.31,19.55-25.62,34.16-33.91c14.53-8.12,30.55-12.18,48.07-12.18
				C-5371.14-524.02-5357.98-521.4-5345.84-516.14z"/>
			<path fill="#F8F8F8" d="M-5168.29-395.44c0,11.97-2.56,22.35-7.69,31.15c-5.13,8.8-12.48,15.34-22.05,19.61
				c-8.89,3.93-18.42,5.9-28.59,5.9c-11.03,0-20.88-2.14-29.55-6.41c-8.68-4.27-15.53-10.43-20.58-18.46
				c-5.47-8.63-8.2-19.23-8.2-31.79v-62.05l30.51-12.82v72.56c0,9.83,2.37,17.31,7.12,22.43s11.64,7.69,20.7,7.69
				c9.06,0,15.96-2.56,20.7-7.69c4.74-5.13,7.12-12.61,7.12-22.43v-59.74l30.51-12.82V-395.44z"/>
			<path fill="#F8F8F8" d="M-5154.32-375.44l4.74-1.15c5.3,4.02,11.09,6.97,17.37,8.85c6.28,1.88,13.52,2.82,21.73,2.82
				c5.47,0,10.3-0.53,14.49-1.6c4.19-1.07,7.44-2.54,9.74-4.42c2.31-1.88,3.46-3.97,3.46-6.28c0-5.81-6.37-9.66-19.1-11.54
				l-12.56-1.92c-13.59-2.14-23.95-6.39-31.09-12.76c-7.14-6.37-10.71-14.59-10.71-24.68c0-7.86,2.33-14.89,6.99-21.09
				c4.66-6.2,11.26-10.96,19.81-14.29c8.21-3.16,17.35-4.74,27.43-4.74c15.38,0,29.23,2.78,41.54,8.33l-0.51,31.02
				c-5.56-3.76-12.03-6.79-19.42-9.1c-7.39-2.31-14.29-3.46-20.7-3.46c-4.62,0-8.76,0.56-12.44,1.67c-3.67,1.11-6.62,2.65-8.85,4.62
				h0.13c-1.88,1.79-2.82,3.72-2.82,5.77c0,2.74,1.32,4.89,3.97,6.47c2.65,1.58,7.35,2.97,14.1,4.17l12.44,2.18
				c28.54,4.96,42.82,17.52,42.82,37.69c0,8.12-2.59,15.32-7.76,21.6c-5.17,6.28-12.46,11.09-21.86,14.42
				c-8.72,3.16-18.8,4.74-30.25,4.74c-7.86,0-15.58-0.88-23.14-2.63c-7.56-1.75-14.42-4.29-20.58-7.63l0.38-25.9L-5154.32-375.44z"
				/>
			<path fill="#F8F8F8" d="M-4943.94-343.39c-9.06,4.36-18.5,6.54-28.33,6.54c-15.04,0-26.47-4.21-34.29-12.63
				s-11.73-20.75-11.73-36.98v-52.05h-25l13.2-28.2h11.79v-25.9l30.77-12.95v38.84h45l-13.21,28.2h-31.79v51.54
				c0,6.75,1.52,11.94,4.55,15.58c3.03,3.63,7.37,5.45,13.01,5.45c7.86,0,16.54-3.16,26.02-9.49V-343.39z"/>
			<path fill="#F8F8F8" d="M-4840.49-339.68v-13.08c-9.15,9.32-20.98,13.97-35.51,13.97c-11.37,0-21.75-2.8-31.15-8.4
				c-9.4-5.6-16.84-13.4-22.31-23.4c-5.38-9.74-8.08-20.68-8.08-32.82c0-11.96,2.65-22.9,7.95-32.82
				c5.3-9.91,12.69-17.69,22.18-23.33c9.4-5.64,19.87-8.46,31.41-8.46c7.18,0,13.78,1.2,19.81,3.59c6.03,2.39,11.26,5.94,15.7,10.64
				v-2.05l30-13.08v129.22H-4840.49z M-4891.58-435.05c-5.17,3.08-9.21,7.35-12.11,12.82c-2.91,5.47-4.36,11.75-4.36,18.85
				c0,7.01,1.43,13.25,4.29,18.72c2.86,5.47,6.9,9.74,12.12,12.82v0.13c4.96,3.08,10.81,4.62,17.56,4.62
				c6.49,0,12.33-1.54,17.5-4.62c5.17-3.08,9.21-7.39,12.11-12.95c2.91-5.47,4.36-11.71,4.36-18.72c0-6.92-1.43-13.16-4.29-18.72
				c-2.86-5.55-6.9-9.87-12.11-12.95c-5.21-3.08-11.07-4.62-17.56-4.62C-4880.57-439.67-4886.41-438.13-4891.58-435.05z"/>
			<path fill="#F8F8F8" d="M-4693.83-467.36h32.82l-51.54,127.94h-34.74l-53.59-127.94h33.72l37.05,92.81L-4693.83-467.36z"/>
			<path fill="#F8F8F8" d="M-4555.83-459.67c10.13,5.56,18.1,13.29,23.91,23.2c5.73,10,8.59,21.02,8.59,33.08
				c0,11.88-2.86,22.78-8.59,32.69c-5.73,9.92-13.67,17.74-23.84,23.46c-10,5.64-21.24,8.46-33.72,8.46
				c-12.31,0-23.52-2.78-33.65-8.33c-10.13-5.55-18.06-13.29-23.78-23.2c-5.73-10-8.59-21.02-8.59-33.07
				c0-11.96,2.84-22.9,8.53-32.82c5.68-9.91,13.65-17.73,23.91-23.46c10.17-5.55,21.37-8.33,33.59-8.33
				C-4577.17-468-4565.96-465.22-4555.83-459.67z M-4607.49-435.05c-5.43,3.08-9.68,7.39-12.75,12.95
				c-3.08,5.64-4.62,11.88-4.62,18.72c0,6.84,1.52,13.01,4.55,18.52c3.03,5.51,7.29,9.89,12.76,13.14
				c5.3,3.08,11.32,4.62,18.08,4.62c6.67,0,12.71-1.54,18.14-4.62c5.43-3.08,9.68-7.39,12.75-12.95c3.08-5.64,4.62-11.88,4.62-18.72
				c0-6.84-1.52-13.01-4.55-18.52c-3.04-5.51-7.29-9.89-12.76-13.14c-5.3-3.08-11.37-4.62-18.2-4.62
				C-4596.06-439.67-4602.06-438.13-4607.49-435.05z"/>
		</g>
		<polyline fill="#F8F8F8" points="-5474.53,-227.75 -5585.21,-394.73 -5525.54,-405.24 -5515.68,-461.16 -5686.13,-618.13 
			-5574.69,-454.4 -5634.36,-443.88 -5644.88,-384.2 -5474.53,-227.75 		"/>
		<g>
			<path fill="#F8F8F8" d="M-5916.96-370.96h75.25l-12.82,31.28h-95.25v-173.71l32.82-12.82V-370.96z"/>
			<path fill="#F8F8F8" d="M-5709.8-395.44c0,11.97-2.56,22.35-7.69,31.15c-5.13,8.8-12.48,15.34-22.05,19.61
				c-8.89,3.93-18.42,5.9-28.59,5.9c-11.03,0-20.88-2.14-29.55-6.41c-8.68-4.27-15.53-10.43-20.58-18.46
				c-5.47-8.63-8.2-19.23-8.2-31.79v-62.05l30.51-12.82v72.56c0,9.83,2.37,17.31,7.12,22.43s11.64,7.69,20.7,7.69
				c9.06,0,15.96-2.56,20.7-7.69c4.74-5.13,7.12-12.61,7.12-22.43v-59.74l30.51-12.82V-395.44z"/>
			<path fill="#F8F8F8" d="M-5692.5-493.51l30.77-12.95v27.31l-30.77,12.95V-493.51z M-5692.5-456.72l30.77-12.95v129.61h-30.77
				V-456.72z"/>
		</g>
	</g>
	<g id="Black_1_">
		<g>
			<path d="M-5345.84-1616.14c12.13,5.26,22.35,12.71,30.64,22.37l-23.46,22.82c-5.56-7.09-12.37-12.56-20.45-16.41
				c-8.08-3.85-16.82-5.77-26.22-5.77c-11.37,0-21.69,2.67-30.96,8.01c-9.27,5.34-16.6,12.84-21.99,22.5
				c-5.38,9.74-8.08,20.47-8.08,32.18c0,11.62,2.48,22.11,7.43,31.47c4.96,9.36,11.96,16.69,21.02,21.99
				c8.72,5.3,18.72,7.95,30,7.95c14.7,0,26.54-3.5,35.51-10.51c8.97-7.01,14.7-17.26,17.18-30.77h-47.56l12.69-30.13h69.48
				l0.38,8.59c0,17.61-3.57,33.48-10.7,47.62c-7.14,14.15-17.2,25.28-30.19,33.4c-13.16,8.38-28.76,12.56-46.79,12.56
				c-16.41,0-31.58-3.78-45.51-11.35c-13.93-7.56-25.04-18.05-33.33-31.47c-8.72-14.02-13.08-30.47-13.08-49.36
				c0-17.35,4.08-33.18,12.24-47.5c8.16-14.31,19.55-25.62,34.16-33.91c14.53-8.12,30.55-12.18,48.07-12.18
				C-5371.14-1624.02-5357.98-1621.4-5345.84-1616.14z"/>
			<path d="M-5168.29-1495.44c0,11.97-2.56,22.35-7.69,31.15c-5.13,8.8-12.48,15.34-22.05,19.61c-8.89,3.93-18.42,5.9-28.59,5.9
				c-11.03,0-20.88-2.14-29.55-6.41c-8.68-4.27-15.53-10.43-20.58-18.46c-5.47-8.63-8.2-19.23-8.2-31.79v-62.05l30.51-12.82v72.56
				c0,9.83,2.37,17.31,7.12,22.43s11.64,7.69,20.7,7.69c9.06,0,15.96-2.56,20.7-7.69c4.74-5.13,7.12-12.61,7.12-22.43v-59.74
				l30.51-12.82V-1495.44z"/>
			<path d="M-5154.32-1475.44l4.74-1.15c5.3,4.02,11.09,6.97,17.37,8.85c6.28,1.88,13.52,2.82,21.73,2.82
				c5.47,0,10.3-0.53,14.49-1.6c4.19-1.07,7.44-2.54,9.74-4.42c2.31-1.88,3.46-3.97,3.46-6.28c0-5.81-6.37-9.66-19.1-11.54
				l-12.56-1.92c-13.59-2.14-23.95-6.39-31.09-12.76c-7.14-6.37-10.71-14.59-10.71-24.68c0-7.86,2.33-14.89,6.99-21.09
				c4.66-6.2,11.26-10.96,19.81-14.29c8.21-3.16,17.35-4.74,27.43-4.74c15.38,0,29.23,2.78,41.54,8.33l-0.51,31.02
				c-5.56-3.76-12.03-6.79-19.42-9.1c-7.39-2.31-14.29-3.46-20.7-3.46c-4.62,0-8.76,0.56-12.44,1.67c-3.67,1.11-6.62,2.65-8.85,4.62
				h0.13c-1.88,1.79-2.82,3.72-2.82,5.77c0,2.74,1.32,4.89,3.97,6.47c2.65,1.58,7.35,2.97,14.1,4.17l12.44,2.18
				c28.54,4.96,42.82,17.52,42.82,37.69c0,8.12-2.59,15.32-7.76,21.6c-5.17,6.28-12.46,11.09-21.86,14.42
				c-8.72,3.16-18.8,4.74-30.25,4.74c-7.86,0-15.58-0.88-23.14-2.63c-7.56-1.75-14.42-4.29-20.58-7.63l0.38-25.9L-5154.32-1475.44z"
				/>
			<path d="M-4943.94-1443.39c-9.06,4.36-18.5,6.54-28.33,6.54c-15.04,0-26.47-4.21-34.29-12.63s-11.73-20.75-11.73-36.98v-52.05
				h-25l13.2-28.2h11.79v-25.9l30.77-12.95v38.84h45l-13.21,28.2h-31.79v51.54c0,6.75,1.52,11.94,4.55,15.58
				c3.03,3.63,7.37,5.45,13.01,5.45c7.86,0,16.54-3.16,26.02-9.49V-1443.39z"/>
			<path d="M-4840.49-1439.68v-13.08c-9.15,9.32-20.98,13.97-35.51,13.97c-11.37,0-21.75-2.8-31.15-8.4
				c-9.4-5.6-16.84-13.4-22.31-23.4c-5.38-9.74-8.08-20.68-8.08-32.82c0-11.96,2.65-22.9,7.95-32.82
				c5.3-9.91,12.69-17.69,22.18-23.33c9.4-5.64,19.87-8.46,31.41-8.46c7.18,0,13.78,1.2,19.81,3.59c6.03,2.39,11.26,5.94,15.7,10.64
				v-2.05l30-13.08v129.22H-4840.49z M-4891.58-1535.05c-5.17,3.08-9.21,7.35-12.11,12.82c-2.91,5.47-4.36,11.75-4.36,18.85
				c0,7.01,1.43,13.25,4.29,18.72c2.86,5.47,6.9,9.74,12.12,12.82v0.13c4.96,3.08,10.81,4.62,17.56,4.62
				c6.49,0,12.33-1.54,17.5-4.62c5.17-3.08,9.21-7.39,12.11-12.95c2.91-5.47,4.36-11.71,4.36-18.72c0-6.92-1.43-13.16-4.29-18.72
				c-2.86-5.55-6.9-9.87-12.11-12.95c-5.21-3.08-11.07-4.62-17.56-4.62C-4880.57-1539.67-4886.41-1538.13-4891.58-1535.05z"/>
			<path d="M-4693.83-1567.36h32.82l-51.54,127.94h-34.74l-53.59-127.94h33.72l37.05,92.81L-4693.83-1567.36z"/>
			<path d="M-4555.83-1559.67c10.13,5.56,18.1,13.29,23.91,23.2c5.73,10,8.59,21.02,8.59,33.08c0,11.88-2.86,22.78-8.59,32.69
				c-5.73,9.92-13.67,17.74-23.84,23.46c-10,5.64-21.24,8.46-33.72,8.46c-12.31,0-23.52-2.78-33.65-8.33
				c-10.13-5.55-18.06-13.29-23.78-23.2c-5.73-10-8.59-21.02-8.59-33.07c0-11.96,2.84-22.9,8.53-32.82
				c5.68-9.91,13.65-17.73,23.91-23.46c10.17-5.55,21.37-8.33,33.59-8.33C-4577.17-1568-4565.96-1565.22-4555.83-1559.67z
				 M-4607.49-1535.05c-5.43,3.08-9.68,7.39-12.75,12.95c-3.08,5.64-4.62,11.88-4.62,18.72c0,6.84,1.52,13.01,4.55,18.52
				c3.03,5.51,7.29,9.89,12.76,13.14c5.3,3.08,11.32,4.62,18.08,4.62c6.67,0,12.71-1.54,18.14-4.62c5.43-3.08,9.68-7.39,12.75-12.95
				c3.08-5.64,4.62-11.88,4.62-18.72c0-6.84-1.52-13.01-4.55-18.52c-3.04-5.51-7.29-9.89-12.76-13.14
				c-5.3-3.08-11.37-4.62-18.2-4.62C-4596.06-1539.67-4602.06-1538.13-4607.49-1535.05z"/>
		</g>
		<polyline points="-5474.53,-1327.75 -5585.21,-1494.73 -5525.54,-1505.24 -5515.68,-1561.16 -5686.13,-1718.13 -5574.69,-1554.4 
			-5634.36,-1543.88 -5644.88,-1484.2 -5474.53,-1327.75 		"/>
		<g>
			<path d="M-5916.96-1470.96h75.25l-12.82,31.28h-95.25v-173.71l32.82-12.82V-1470.96z"/>
			<path d="M-5709.8-1495.44c0,11.97-2.56,22.35-7.69,31.15c-5.13,8.8-12.48,15.34-22.05,19.61c-8.89,3.93-18.42,5.9-28.59,5.9
				c-11.03,0-20.88-2.14-29.55-6.41c-8.68-4.27-15.53-10.43-20.58-18.46c-5.47-8.63-8.2-19.23-8.2-31.79v-62.05l30.51-12.82v72.56
				c0,9.83,2.37,17.31,7.12,22.43s11.64,7.69,20.7,7.69c9.06,0,15.96-2.56,20.7-7.69c4.74-5.13,7.12-12.61,7.12-22.43v-59.74
				l30.51-12.82V-1495.44z"/>
			<path d="M-5692.5-1593.51l30.77-12.95v27.31l-30.77,12.95V-1593.51z M-5692.5-1556.72l30.77-12.95v129.61h-30.77V-1556.72z"/>
		</g>
	</g>
	<g id="Colorful_Black">
		<g>
			<path d="M604.16,101.86c12.13,5.26,22.35,12.71,30.64,22.37l-23.46,22.82c-5.56-7.09-12.37-12.56-20.45-16.41
				c-8.08-3.85-16.82-5.77-26.22-5.77c-11.37,0-21.69,2.67-30.96,8.01c-9.27,5.34-16.6,12.84-21.99,22.5
				c-5.38,9.74-8.08,20.47-8.08,32.18c0,11.62,2.48,22.11,7.43,31.47c4.96,9.36,11.96,16.69,21.02,21.99
				c8.72,5.3,18.72,7.95,30,7.95c14.7,0,26.54-3.5,35.51-10.51c8.97-7.01,14.7-17.26,17.18-30.77h-47.56l12.69-30.13h69.48
				l0.38,8.59c0,17.61-3.57,33.48-10.7,47.62c-7.14,14.15-17.2,25.28-30.19,33.4c-13.16,8.38-28.76,12.56-46.79,12.56
				c-16.41,0-31.58-3.78-45.51-11.35c-13.93-7.56-25.04-18.05-33.33-31.47c-8.72-14.02-13.08-30.47-13.08-49.36
				c0-17.35,4.08-33.18,12.24-47.5c8.16-14.31,19.55-25.62,34.16-33.91c14.53-8.12,30.55-12.18,48.07-12.18
				C578.86,93.98,592.02,96.6,604.16,101.86z"/>
			<path d="M781.71,222.56c0,11.97-2.56,22.35-7.69,31.15c-5.13,8.8-12.48,15.34-22.05,19.61c-8.89,3.93-18.42,5.9-28.59,5.9
				c-11.03,0-20.88-2.14-29.55-6.41c-8.68-4.27-15.53-10.43-20.58-18.46c-5.47-8.63-8.2-19.23-8.2-31.79v-62.05l30.51-12.82v72.56
				c0,9.83,2.37,17.31,7.12,22.43s11.64,7.69,20.7,7.69c9.06,0,15.96-2.56,20.7-7.69c4.74-5.13,7.12-12.61,7.12-22.43v-59.74
				l30.51-12.82V222.56z"/>
			<path d="M795.68,242.56l4.74-1.15c5.3,4.02,11.09,6.97,17.37,8.85c6.28,1.88,13.52,2.82,21.73,2.82c5.47,0,10.3-0.53,14.49-1.6
				c4.19-1.07,7.44-2.54,9.74-4.42c2.31-1.88,3.46-3.97,3.46-6.28c0-5.81-6.37-9.66-19.1-11.54l-12.56-1.92
				c-13.59-2.14-23.95-6.39-31.09-12.76c-7.14-6.37-10.71-14.59-10.71-24.68c0-7.86,2.33-14.89,6.99-21.09
				c4.66-6.2,11.26-10.96,19.81-14.29c8.21-3.16,17.35-4.74,27.43-4.74c15.38,0,29.23,2.78,41.54,8.33l-0.51,31.02
				c-5.56-3.76-12.03-6.79-19.42-9.1c-7.39-2.31-14.29-3.46-20.7-3.46c-4.62,0-8.76,0.56-12.44,1.67c-3.67,1.11-6.62,2.65-8.85,4.62
				h0.13c-1.88,1.79-2.82,3.72-2.82,5.77c0,2.74,1.32,4.89,3.97,6.47c2.65,1.58,7.35,2.97,14.1,4.17l12.44,2.18
				c28.54,4.96,42.82,17.52,42.82,37.69c0,8.12-2.59,15.32-7.76,21.6c-5.17,6.28-12.46,11.09-21.86,14.42
				c-8.72,3.16-18.8,4.74-30.25,4.74c-7.86,0-15.58-0.88-23.14-2.63c-7.56-1.75-14.42-4.29-20.58-7.63l0.38-25.9L795.68,242.56z"/>
			<path d="M1006.06,274.61c-9.06,4.36-18.5,6.54-28.33,6.54c-15.04,0-26.47-4.21-34.29-12.63s-11.73-20.75-11.73-36.98v-52.05h-25
				l13.2-28.2h11.79v-25.9l30.77-12.95v38.84h45l-13.21,28.2h-31.79v51.54c0,6.75,1.52,11.94,4.55,15.58
				c3.03,3.63,7.37,5.45,13.01,5.45c7.86,0,16.54-3.16,26.02-9.49V274.61z"/>
			<path d="M1109.51,278.32v-13.08c-9.15,9.32-20.98,13.97-35.51,13.97c-11.37,0-21.75-2.8-31.15-8.4
				c-9.4-5.6-16.84-13.4-22.31-23.4c-5.38-9.74-8.08-20.68-8.08-32.82c0-11.96,2.65-22.9,7.95-32.82
				c5.3-9.91,12.69-17.69,22.18-23.33c9.4-5.64,19.87-8.46,31.41-8.46c7.18,0,13.78,1.2,19.81,3.59c6.03,2.39,11.26,5.94,15.7,10.64
				v-2.05l30-13.08v129.22H1109.51z M1058.42,182.95c-5.17,3.08-9.21,7.35-12.11,12.82c-2.91,5.47-4.36,11.75-4.36,18.85
				c0,7.01,1.43,13.25,4.29,18.72c2.86,5.47,6.9,9.74,12.12,12.82v0.13c4.96,3.08,10.81,4.62,17.56,4.62
				c6.49,0,12.33-1.54,17.5-4.62c5.17-3.08,9.21-7.39,12.11-12.95c2.91-5.47,4.36-11.71,4.36-18.72c0-6.92-1.43-13.16-4.29-18.72
				c-2.86-5.55-6.9-9.87-12.11-12.95c-5.21-3.08-11.07-4.62-17.56-4.62C1069.43,178.33,1063.59,179.87,1058.42,182.95z"/>
			<path d="M1256.17,150.64h32.82l-51.54,127.94h-34.74l-53.59-127.94h33.72l37.05,92.81L1256.17,150.64z"/>
			<path d="M1394.17,158.33c10.13,5.56,18.1,13.29,23.91,23.2c5.73,10,8.59,21.02,8.59,33.08c0,11.88-2.86,22.78-8.59,32.69
				c-5.73,9.92-13.67,17.74-23.84,23.46c-10,5.64-21.24,8.46-33.72,8.46c-12.31,0-23.52-2.78-33.65-8.33
				c-10.13-5.55-18.06-13.29-23.78-23.2c-5.73-10-8.59-21.02-8.59-33.07c0-11.96,2.84-22.9,8.53-32.82
				c5.68-9.91,13.65-17.73,23.91-23.46c10.17-5.55,21.37-8.33,33.59-8.33C1372.83,150,1384.04,152.78,1394.17,158.33z
				 M1342.51,182.95c-5.43,3.08-9.68,7.39-12.75,12.95c-3.08,5.64-4.62,11.88-4.62,18.72c0,6.84,1.52,13.01,4.55,18.52
				c3.03,5.51,7.29,9.89,12.76,13.14c5.3,3.08,11.32,4.62,18.08,4.62c6.67,0,12.71-1.54,18.14-4.62c5.43-3.08,9.68-7.39,12.75-12.95
				c3.08-5.64,4.62-11.88,4.62-18.72c0-6.84-1.52-13.01-4.55-18.52c-3.04-5.51-7.29-9.89-12.76-13.14
				c-5.3-3.08-11.37-4.62-18.2-4.62C1353.94,178.33,1347.94,179.87,1342.51,182.95z"/>
		</g>
		<linearGradient id="SVGID_4_" gradientUnits="userSpaceOnUse" x1="263.8703" y1="195.0622" x2="475.474" y2="195.0622">
			<stop  offset="0" style="stop-color:#40D138"/>
			<stop  offset="1" style="stop-color:#217E23"/>
		</linearGradient>
		<polyline fill="url(#SVGID_4_)" points="475.47,390.25 364.79,223.27 424.46,212.76 434.32,156.84 263.87,-0.13 375.31,163.6 
			315.64,174.12 305.12,233.8 475.47,390.25 		"/>
		<g>
			<path d="M33.04,247.04h75.25l-12.82,31.28H0.22V104.62L33.04,91.8V247.04z"/>
			<path d="M240.2,222.56c0,11.97-2.56,22.35-7.69,31.15c-5.13,8.8-12.48,15.34-22.05,19.61c-8.89,3.93-18.42,5.9-28.59,5.9
				c-11.03,0-20.88-2.14-29.55-6.41c-8.68-4.27-15.53-10.43-20.58-18.46c-5.47-8.63-8.2-19.23-8.2-31.79v-62.05l30.51-12.82v72.56
				c0,9.83,2.37,17.31,7.12,22.43s11.64,7.69,20.7,7.69c9.06,0,15.96-2.56,20.7-7.69c4.74-5.13,7.12-12.61,7.12-22.43v-59.74
				l30.51-12.82V222.56z"/>
			<path d="M257.5,124.49l30.77-12.95v27.31l-30.77,12.95V124.49z M257.5,161.28l30.77-12.95v129.61H257.5V161.28z"/>
		</g>
	</g>
	<g id="Colorful_White">
		<g>
			<path fill="#F8F8F8" d="M-5345.84-4916.14c12.13,5.26,22.35,12.71,30.64,22.37l-23.46,22.82c-5.56-7.09-12.37-12.56-20.45-16.41
				c-8.08-3.85-16.82-5.77-26.22-5.77c-11.37,0-21.69,2.67-30.96,8.01c-9.27,5.34-16.6,12.84-21.99,22.5
				c-5.38,9.74-8.08,20.47-8.08,32.18c0,11.62,2.48,22.11,7.43,31.47c4.96,9.36,11.96,16.69,21.02,21.99
				c8.72,5.3,18.72,7.95,30,7.95c14.7,0,26.54-3.5,35.51-10.51c8.97-7.01,14.7-17.26,17.18-30.77h-47.56l12.69-30.13h69.48
				l0.38,8.59c0,17.61-3.57,33.48-10.7,47.62c-7.14,14.15-17.2,25.28-30.19,33.4c-13.16,8.38-28.76,12.56-46.79,12.56
				c-16.41,0-31.58-3.78-45.51-11.35c-13.93-7.56-25.04-18.05-33.33-31.47c-8.72-14.02-13.08-30.47-13.08-49.36
				c0-17.35,4.08-33.18,12.24-47.5c8.16-14.31,19.55-25.62,34.16-33.91c14.53-8.12,30.55-12.18,48.07-12.18
				C-5371.14-4924.02-5357.98-4921.4-5345.84-4916.14z"/>
			<path fill="#F8F8F8" d="M-5168.29-4795.44c0,11.97-2.56,22.35-7.69,31.15c-5.13,8.8-12.48,15.34-22.05,19.61
				c-8.89,3.93-18.42,5.9-28.59,5.9c-11.03,0-20.88-2.14-29.55-6.41c-8.68-4.27-15.53-10.43-20.58-18.46
				c-5.47-8.63-8.2-19.23-8.2-31.79v-62.05l30.51-12.82v72.56c0,9.83,2.37,17.31,7.12,22.43s11.64,7.69,20.7,7.69
				c9.06,0,15.96-2.56,20.7-7.69c4.74-5.13,7.12-12.61,7.12-22.43v-59.74l30.51-12.82V-4795.44z"/>
			<path fill="#F8F8F8" d="M-5154.32-4775.44l4.74-1.15c5.3,4.02,11.09,6.97,17.37,8.85c6.28,1.88,13.52,2.82,21.73,2.82
				c5.47,0,10.3-0.53,14.49-1.6c4.19-1.07,7.44-2.54,9.74-4.42c2.31-1.88,3.46-3.97,3.46-6.28c0-5.81-6.37-9.66-19.1-11.54
				l-12.56-1.92c-13.59-2.14-23.95-6.39-31.09-12.76c-7.14-6.37-10.71-14.59-10.71-24.68c0-7.86,2.33-14.89,6.99-21.09
				c4.66-6.2,11.26-10.96,19.81-14.29c8.21-3.16,17.35-4.74,27.43-4.74c15.38,0,29.23,2.78,41.54,8.33l-0.51,31.02
				c-5.56-3.76-12.03-6.79-19.42-9.1c-7.39-2.31-14.29-3.46-20.7-3.46c-4.62,0-8.76,0.56-12.44,1.67c-3.67,1.11-6.62,2.65-8.85,4.62
				h0.13c-1.88,1.79-2.82,3.72-2.82,5.77c0,2.74,1.32,4.89,3.97,6.47c2.65,1.58,7.35,2.97,14.1,4.17l12.44,2.18
				c28.54,4.96,42.82,17.52,42.82,37.69c0,8.12-2.59,15.32-7.76,21.6c-5.17,6.28-12.46,11.09-21.86,14.42
				c-8.72,3.16-18.8,4.74-30.25,4.74c-7.86,0-15.58-0.88-23.14-2.63c-7.56-1.75-14.42-4.29-20.58-7.63l0.38-25.9L-5154.32-4775.44z"
				/>
			<path fill="#F8F8F8" d="M-4943.94-4743.39c-9.06,4.36-18.5,6.54-28.33,6.54c-15.04,0-26.47-4.21-34.29-12.63
				s-11.73-20.75-11.73-36.98v-52.05h-25l13.2-28.2h11.79v-25.9l30.77-12.95v38.84h45l-13.21,28.2h-31.79v51.54
				c0,6.75,1.52,11.94,4.55,15.58c3.03,3.63,7.37,5.45,13.01,5.45c7.86,0,16.54-3.16,26.02-9.49V-4743.39z"/>
			<path fill="#F8F8F8" d="M-4840.49-4739.68v-13.08c-9.15,9.32-20.98,13.97-35.51,13.97c-11.37,0-21.75-2.8-31.15-8.4
				c-9.4-5.6-16.84-13.4-22.31-23.4c-5.38-9.74-8.08-20.68-8.08-32.82c0-11.96,2.65-22.9,7.95-32.82
				c5.3-9.91,12.69-17.69,22.18-23.33c9.4-5.64,19.87-8.46,31.41-8.46c7.18,0,13.78,1.2,19.81,3.59c6.03,2.39,11.26,5.94,15.7,10.64
				v-2.05l30-13.08v129.22H-4840.49z M-4891.58-4835.05c-5.17,3.08-9.21,7.35-12.11,12.82c-2.91,5.47-4.36,11.75-4.36,18.85
				c0,7.01,1.43,13.25,4.29,18.72c2.86,5.47,6.9,9.74,12.12,12.82v0.13c4.96,3.08,10.81,4.62,17.56,4.62
				c6.49,0,12.33-1.54,17.5-4.62c5.17-3.08,9.21-7.39,12.11-12.95c2.91-5.47,4.36-11.71,4.36-18.72c0-6.92-1.43-13.16-4.29-18.72
				c-2.86-5.55-6.9-9.87-12.11-12.95c-5.21-3.08-11.07-4.62-17.56-4.62C-4880.57-4839.67-4886.41-4838.13-4891.58-4835.05z"/>
			<path fill="#F8F8F8" d="M-4693.83-4867.36h32.82l-51.54,127.94h-34.74l-53.59-127.94h33.72l37.05,92.81L-4693.83-4867.36z"/>
			<path fill="#F8F8F8" d="M-4555.83-4859.67c10.13,5.56,18.1,13.29,23.91,23.2c5.73,10,8.59,21.02,8.59,33.08
				c0,11.88-2.86,22.78-8.59,32.69c-5.73,9.92-13.67,17.74-23.84,23.46c-10,5.64-21.24,8.46-33.72,8.46
				c-12.31,0-23.52-2.78-33.65-8.33c-10.13-5.55-18.06-13.29-23.78-23.2c-5.73-10-8.59-21.02-8.59-33.07
				c0-11.96,2.84-22.9,8.53-32.82c5.68-9.91,13.65-17.73,23.91-23.46c10.17-5.55,21.37-8.33,33.59-8.33
				C-4577.17-4868-4565.96-4865.22-4555.83-4859.67z M-4607.49-4835.05c-5.43,3.08-9.68,7.39-12.75,12.95
				c-3.08,5.64-4.62,11.88-4.62,18.72c0,6.84,1.52,13.01,4.55,18.52c3.03,5.51,7.29,9.89,12.76,13.14
				c5.3,3.08,11.32,4.62,18.08,4.62c6.67,0,12.71-1.54,18.14-4.62c5.43-3.08,9.68-7.39,12.75-12.95c3.08-5.64,4.62-11.88,4.62-18.72
				c0-6.84-1.52-13.01-4.55-18.52c-3.04-5.51-7.29-9.89-12.76-13.14c-5.3-3.08-11.37-4.62-18.2-4.62
				C-4596.06-4839.67-4602.06-4838.13-4607.49-4835.05z"/>
		</g>
		<linearGradient id="SVGID_5_" gradientUnits="userSpaceOnUse" x1="-5686.1299" y1="-4822.938" x2="-5474.5259" y2="-4822.938">
			<stop  offset="0" style="stop-color:#40D138"/>
			<stop  offset="1" style="stop-color:#217E23"/>
		</linearGradient>
		<polyline fill="url(#SVGID_5_)" points="-5474.53,-4627.75 -5585.21,-4794.73 -5525.54,-4805.24 -5515.68,-4861.16 
			-5686.13,-5018.13 -5574.69,-4854.4 -5634.36,-4843.88 -5644.88,-4784.2 -5474.53,-4627.75 		"/>
		<g>
			<path fill="#F8F8F8" d="M-5916.96-4770.96h75.25l-12.82,31.28h-95.25v-173.71l32.82-12.82V-4770.96z"/>
			<path fill="#F8F8F8" d="M-5709.8-4795.44c0,11.97-2.56,22.35-7.69,31.15c-5.13,8.8-12.48,15.34-22.05,19.61
				c-8.89,3.93-18.42,5.9-28.59,5.9c-11.03,0-20.88-2.14-29.55-6.41c-8.68-4.27-15.53-10.43-20.58-18.46
				c-5.47-8.63-8.2-19.23-8.2-31.79v-62.05l30.51-12.82v72.56c0,9.83,2.37,17.31,7.12,22.43s11.64,7.69,20.7,7.69
				c9.06,0,15.96-2.56,20.7-7.69c4.74-5.13,7.12-12.61,7.12-22.43v-59.74l30.51-12.82V-4795.44z"/>
			<path fill="#F8F8F8" d="M-5692.5-4893.51l30.77-12.95v27.31l-30.77,12.95V-4893.51z M-5692.5-4856.72l30.77-12.95v129.61h-30.77
				V-4856.72z"/>
		</g>
	</g>
	<linearGradient id="SVGID_6_" gradientUnits="userSpaceOnUse" x1="-5947.9473" y1="-2626" x2="-4526.0527" y2="-2626">
		<stop  offset="0" style="stop-color:#40D138"/>
		<stop  offset="1" style="stop-color:#217E23"/>
	</linearGradient>
	<path fill="url(#SVGID_6_)" d="M-5345.93-2718.9c12.09,5.24,22.28,12.67,30.54,22.3l-23.39,22.75
		c-5.54-7.07-12.33-12.52-20.38-16.36c-8.05-3.83-16.76-5.75-26.13-5.75c-11.33,0-21.62,2.66-30.86,7.99
		c-9.24,5.33-16.55,12.8-21.92,22.43c-5.37,9.71-8.05,20.4-8.05,32.07c0,11.59,2.47,22.04,7.41,31.37
		c4.94,9.33,11.93,16.63,20.96,21.92c8.69,5.28,18.66,7.92,29.9,7.92c14.65,0,26.45-3.49,35.4-10.48
		c8.94-6.98,14.65-17.21,17.12-30.67h-47.41l12.65-30.03h69.26l0.38,8.56c0,17.55-3.56,33.37-10.67,47.47
		c-7.11,14.1-17.15,25.2-30.1,33.29c-13.12,8.35-28.67,12.52-46.64,12.52c-16.35,0-31.48-3.77-45.36-11.31
		c-13.89-7.54-24.96-18-33.23-31.37c-8.69-13.97-13.03-30.37-13.03-49.2c0-17.29,4.07-33.08,12.2-47.35
		c8.13-14.27,19.49-25.54,34.05-33.8c14.48-8.09,30.46-12.14,47.92-12.14C-5371.15-2726.76-5358.03-2724.14-5345.93-2718.9z
		 M-5168.95-2598.59c0,11.93-2.56,22.28-7.67,31.05c-5.11,8.78-12.44,15.29-21.98,19.55c-8.86,3.92-18.36,5.88-28.5,5.88
		c-10.99,0-20.81-2.13-29.46-6.39c-8.65-4.26-15.48-10.39-20.51-18.4c-5.45-8.6-8.18-19.17-8.18-31.69v-61.85l30.41-12.78v72.33
		c0,9.8,2.37,17.25,7.09,22.36c4.73,5.11,11.61,7.67,20.64,7.67c9.03,0,15.91-2.56,20.64-7.67c4.73-5.11,7.09-12.57,7.09-22.36
		v-59.55l30.41-12.78V-2598.59z M-5155.02-2578.66l4.73-1.15c5.28,4.01,11.05,6.94,17.32,8.82c6.26,1.87,13.48,2.81,21.66,2.81
		c5.45,0,10.27-0.53,14.44-1.6c4.17-1.06,7.41-2.53,9.71-4.41c2.3-1.87,3.45-3.96,3.45-6.26c0-5.79-6.35-9.63-19.04-11.5
		l-12.52-1.92c-13.54-2.13-23.88-6.37-30.99-12.72c-7.11-6.35-10.67-14.55-10.67-24.6c0-7.84,2.32-14.84,6.96-21.02
		c4.64-6.17,11.22-10.93,19.75-14.25c8.18-3.15,17.29-4.73,27.35-4.73c15.33,0,29.13,2.77,41.4,8.31l-0.51,30.93
		c-5.54-3.75-11.99-6.77-19.36-9.07c-7.37-2.3-14.25-3.45-20.64-3.45c-4.6,0-8.73,0.55-12.39,1.66c-3.66,1.11-6.6,2.64-8.82,4.6
		h0.13c-1.87,1.79-2.81,3.71-2.81,5.75c0,2.73,1.32,4.88,3.96,6.45c2.64,1.58,7.33,2.96,14.06,4.15l12.39,2.17
		c28.45,4.94,42.68,17.46,42.68,37.57c0,8.09-2.58,15.27-7.73,21.53c-5.15,6.26-12.42,11.05-21.79,14.38
		c-8.69,3.15-18.74,4.73-30.16,4.73c-7.84,0-15.53-0.88-23.07-2.62c-7.54-1.75-14.38-4.28-20.51-7.6l0.38-25.81L-5155.02-2578.66z
		 M-4945.32-2546.71c-9.03,4.34-18.44,6.52-28.24,6.52c-15,0-26.39-4.2-34.18-12.59c-7.79-8.39-11.69-20.68-11.69-36.87v-51.88
		h-24.92l13.16-28.11h11.76v-25.81l30.67-12.91v38.72h44.85l-13.16,28.11h-31.69v51.37c0,6.73,1.51,11.91,4.54,15.53
		c3.02,3.62,7.35,5.43,12.97,5.43c7.84,0,16.48-3.15,25.94-9.46V-2546.71z M-4842.2-2543v-13.03c-9.12,9.29-20.92,13.93-35.4,13.93
		c-11.33,0-21.68-2.79-31.05-8.37c-9.37-5.58-16.78-13.35-22.23-23.32c-5.37-9.71-8.05-20.62-8.05-32.71
		c0-11.93,2.64-22.83,7.92-32.71c5.28-9.88,12.65-17.63,22.11-23.26c9.37-5.62,19.81-8.43,31.31-8.43c7.16,0,13.74,1.19,19.74,3.58
		c6.01,2.39,11.22,5.92,15.65,10.61v-2.04l29.9-13.03V-2543H-4842.2z M-4893.12-2638.08c-5.15,3.07-9.18,7.33-12.08,12.78
		c-2.9,5.45-4.35,11.71-4.35,18.78c0,6.99,1.43,13.21,4.28,18.66c2.85,5.45,6.88,9.71,12.08,12.78v0.13
		c4.94,3.07,10.77,4.6,17.51,4.6c6.47,0,12.29-1.53,17.44-4.6c5.15-3.07,9.18-7.37,12.08-12.91c2.9-5.45,4.35-11.67,4.35-18.66
		c0-6.9-1.43-13.12-4.28-18.66c-2.86-5.54-6.88-9.84-12.08-12.91c-5.2-3.07-11.03-4.6-17.51-4.6S-4887.97-2641.15-4893.12-2638.08z
		 M-4696.01-2670.28h32.71l-51.37,127.53h-34.63l-53.42-127.53h33.61l36.93,92.52L-4696.01-2670.28z M-4558.45-2662.61
		c10.1,5.54,18.04,13.25,23.83,23.13c5.71,9.97,8.56,20.96,8.56,32.97c0,11.84-2.86,22.7-8.56,32.59
		c-5.71,9.88-13.63,17.68-23.77,23.39c-9.97,5.62-21.17,8.43-33.61,8.43c-12.27,0-23.45-2.77-33.54-8.31s-18-13.25-23.71-23.13
		c-5.71-9.97-8.56-20.96-8.56-32.97c0-11.93,2.83-22.83,8.5-32.71c5.66-9.88,13.61-17.68,23.83-23.39
		c10.14-5.54,21.29-8.31,33.48-8.31C-4579.72-2670.92-4568.54-2668.15-4558.45-2662.61z M-4609.95-2638.08
		c-5.41,3.07-9.65,7.37-12.71,12.91c-3.07,5.62-4.6,11.84-4.6,18.66c0,6.82,1.51,12.97,4.54,18.47s7.26,9.86,12.72,13.1
		c5.28,3.07,11.29,4.6,18.02,4.6c6.64,0,12.67-1.53,18.08-4.6c5.41-3.07,9.65-7.37,12.71-12.91c3.07-5.62,4.6-11.84,4.6-18.66
		c0-6.81-1.51-12.97-4.54-18.46c-3.02-5.5-7.27-9.86-12.72-13.1c-5.28-3.07-11.33-4.6-18.14-4.6
		C-4598.55-2642.68-4604.54-2641.15-4609.95-2638.08z M-5474.21-2431.44l-110.33-166.45l59.48-10.48l9.83-55.74l-169.9-156.46
		l111.08,163.2l-59.48,10.48l-10.49,59.49L-5474.21-2431.44 M-5915.23-2574.18h75.01L-5853-2543h-94.95v-173.15l32.72-12.78
		V-2574.18z M-5708.73-2598.59c0,11.93-2.56,22.28-7.67,31.05c-5.11,8.78-12.44,15.29-21.98,19.55c-8.86,3.92-18.36,5.88-28.49,5.88
		c-10.99,0-20.81-2.13-29.46-6.39c-8.65-4.26-15.48-10.39-20.51-18.4c-5.45-8.6-8.18-19.17-8.18-31.69v-61.85l30.41-12.78v72.33
		c0,9.8,2.37,17.25,7.09,22.36c4.73,5.11,11.61,7.67,20.64,7.67c9.02,0,15.91-2.56,20.64-7.67c4.73-5.11,7.09-12.57,7.09-22.36
		v-59.55l30.41-12.78V-2598.59z M-5691.48-2696.35l30.67-12.91v27.22l-30.67,12.91V-2696.35z M-5691.48-2659.67l30.67-12.91v129.19
		h-30.67V-2659.67z"/>
</g>
<g id="Logos">
	<linearGradient id="Default_2_" gradientUnits="userSpaceOnUse" x1="-6708.9409" y1="-2626" x2="-6465.0591" y2="-2626">
		<stop  offset="0" style="stop-color:#40D138"/>
		<stop  offset="1" style="stop-color:#217E23"/>
	</linearGradient>
	<polyline id="Default_1_" fill="url(#Default_2_)" points="-6465.06,-2401.04 -6592.63,-2593.49 -6523.86,-2605.61 
		-6512.49,-2670.05 -6708.94,-2850.96 -6580.5,-2662.26 -6649.27,-2650.14 -6661.4,-2581.35 -6465.06,-2401.04 	"/>
	<polyline id="White" fill="#F8F8F8" points="-6465.06,-201.04 -6592.63,-393.49 -6523.86,-405.61 -6512.49,-470.05 
		-6708.94,-650.96 -6580.5,-462.26 -6649.27,-450.14 -6661.4,-381.35 -6465.06,-201.04 	"/>
	<polyline id="Black" points="-6465.06,-1301.04 -6592.63,-1493.49 -6523.86,-1505.61 -6512.49,-1570.05 -6708.94,-1750.96 
		-6580.5,-1562.26 -6649.27,-1550.14 -6661.4,-1481.35 -6465.06,-1301.04 	"/>
	<g>
		<path d="M-13083.34-3966.82l162.44,149.59l-10.28,58.31l-65.32,11.51l-7.52,1.32l4.22,6.36l104.9,158.25l-164.11-150.71
			l11.05-62.64l65.32-11.51l7.62-1.34l-4.35-6.4L-13083.34-3966.82 M-13111.94-3999.96l128.44,188.7l-68.77,12.12l-12.13,68.79
			l196.34,180.31l-127.57-192.45l68.77-12.12l11.37-64.45L-13111.94-3999.96L-13111.94-3999.96z"/>
	</g>
	<g>
		<path fill="#F8F8F8" d="M-6680.34-5017.82l162.44,149.59l-10.28,58.31l-65.32,11.51l-7.52,1.32l4.22,6.36l104.9,158.25
			L-6656-4783.18l11.05-62.64l65.32-11.51l7.62-1.34l-4.35-6.4L-6680.34-5017.82 M-6708.94-5050.96l128.44,188.7l-68.77,12.12
			l-12.13,68.79l196.34,180.31l-127.57-192.45l68.77-12.12l11.37-64.45L-6708.94-5050.96L-6708.94-5050.96z"/>
	</g>
	<g>
	</g>
	<g>
	</g>
	<g>
	</g>
	<g>
	</g>
	<g>
	</g>
	<g>
	</g>
	<g>
	</g>
	<g>
	</g>
	<g>
	</g>
	<g>
	</g>
	<g>
	</g>
	<g>
	</g>
	<g>
	</g>
	<g>
	</g>
	<g>
	</g>
</g>
</svg>
