<?xml version="1.0" encoding="utf-8"?>
<!-- Generator: Adobe Illustrator 25.0.0, SVG Export Plug-In . SVG Version: 6.00 Build 0)  -->
<svg version="1.1" xmlns="http://www.w3.org/2000/svg" xmlns:xlink="http://www.w3.org/1999/xlink" x="0px" y="0px"
	 viewBox="0 0 1000 1000" enable-background="new 0 0 1000 1000" xml:space="preserve">
<g id="Headers">
	<g id="Layer_10">
		<path fill="#F8F8F8" d="M9487.01,4043.56l-110.33-166.45l59.48-10.48l9.83-55.74l-169.9-156.46l111.08,163.2l-59.48,10.48
			l-10.49,59.49L9487.01,4043.56 M9627.63,3754.8c12.26,5.31,22.59,12.85,30.97,22.61l-23.71,23.06
			c-5.62-7.17-12.5-12.7-20.67-16.58s-17-5.83-26.5-5.83c-11.49,0-21.92,2.7-31.29,8.1c-9.37,5.4-16.78,12.98-22.22,22.74
			c-5.44,9.85-8.16,20.69-8.16,32.52c0,11.75,2.5,22.35,7.51,31.81c5.01,9.46,12.09,16.87,21.25,22.22
			c8.81,5.36,18.92,8.03,30.32,8.03c14.86,0,26.82-3.54,35.89-10.62c9.07-7.08,14.86-17.45,17.36-31.1h-48.07l12.83-30.45h70.23
			l0.39,8.68c0,17.8-3.61,33.84-10.82,48.14c-7.21,14.3-17.38,25.55-30.51,33.75c-13.3,8.47-29.07,12.7-47.29,12.7
			c-16.59,0-31.92-3.82-46-11.47c-14.08-7.64-25.31-18.25-33.69-31.81c-8.81-14.17-13.22-30.79-13.22-49.89
			c0-17.54,4.12-33.54,12.38-48.01c8.25-14.47,19.76-25.89,34.53-34.27c14.68-8.21,30.88-12.31,48.59-12.31
			C9602.06,3746.83,9615.36,3749.49,9627.63,3754.8z M9772.49,3840.38c-1.38-1.99-4.3-3.65-8.75-4.99
			c-4.45-1.34-9.09-2.01-13.93-2.01c-5.62,0-10.47,1.17-14.58,3.5c-4.1,2.33-7.28,5.79-9.52,10.37c-2.33,4.67-3.5,10.19-3.5,16.59
			v70.23h-30.97v-119.08l30.71-13.22v14.77c8.03-8.55,19.39-12.83,34.08-12.83c7.17,0,12.65,0.74,16.46,2.2V3840.38z
			 M9875.37,3933.16v-13.22c-9.24,9.42-21.21,14.12-35.89,14.12c-11.49,0-21.98-2.83-31.49-8.49c-9.5-5.66-17.02-13.54-22.55-23.65
			c-5.44-9.85-8.16-20.9-8.16-33.17c0-12.09,2.68-23.15,8.03-33.17c5.35-10.02,12.83-17.88,22.42-23.58
			c9.5-5.7,20.08-8.55,31.75-8.55c7.26,0,13.93,1.21,20.02,3.63c6.09,2.42,11.38,6,15.87,10.75v-2.07l30.32-13.22v130.61H9875.37z
			 M9823.73,3836.75c-5.23,3.11-9.31,7.43-12.24,12.96c-2.94,5.53-4.41,11.88-4.41,19.05c0,7.08,1.45,13.39,4.34,18.92
			c2.89,5.53,6.97,9.85,12.25,12.96v0.13c5.01,3.11,10.93,4.66,17.75,4.66c6.56,0,12.46-1.55,17.69-4.66
			c5.22-3.11,9.31-7.47,12.24-13.09c2.94-5.53,4.41-11.83,4.41-18.92c0-7-1.45-13.3-4.34-18.92c-2.89-5.61-6.98-9.98-12.24-13.09
			c-5.27-3.11-11.19-4.66-17.75-4.66C9834.85,3832.09,9828.96,3833.64,9823.73,3836.75z M10020.94,3811.75
			c9.63,5.7,17.21,13.65,22.74,23.84c5.44,10.02,8.16,21.25,8.16,33.69c0,12.18-2.7,23.32-8.1,33.43
			c-5.4,10.11-12.94,18.01-22.61,23.71c-9.42,5.87-20.08,8.81-32,8.81c-15.03,0-27.08-4.79-36.15-14.38v64.79h-30.45v-170.26
			l30.45-13.22v15.42c4.58-4.75,9.93-8.34,16.07-10.75c6.13-2.42,12.83-3.63,20.08-3.63
			C10000.71,3803.19,10011.31,3806.04,10020.94,3811.75z M9969.44,3836.88c-5.27,3.11-9.42,7.52-12.44,13.22
			c-3.03,5.79-4.54,12.18-4.54,19.18c0,7.08,1.47,13.43,4.41,19.05c2.94,5.62,7.08,10.02,12.44,13.22
			c5.27,3.11,11.23,4.66,17.88,4.66c6.65,0,12.61-1.53,17.88-4.6c5.27-3.07,9.41-7.45,12.44-13.15c2.94-5.53,4.41-11.92,4.41-19.18
			c0-7.08-1.45-13.45-4.34-19.11c-2.9-5.66-7.02-10.08-12.38-13.28c-5.27-3.11-11.27-4.66-18.01-4.66
			C9980.62,3832.22,9974.7,3833.77,9969.44,3836.88z M10097.19,3817.19c4.32-4.66,9.52-8.23,15.61-10.69s12.85-3.69,20.28-3.69
			c10.02,0,19.07,2.18,27.15,6.54c8.08,4.36,14.36,10.48,18.85,18.33c4.32,7.95,6.43,16.8,6.35,26.56l-1.81,79.82h-31.1l1.81-71.14
			c0.26-9.59-1.99-17.06-6.74-22.42c-4.75-5.35-11.49-8.03-20.21-8.03c-5.96,0-11.21,1.25-15.74,3.76
			c-4.54,2.51-8.06,6.09-10.56,10.76c-2.59,4.75-3.89,10.19-3.89,16.33v70.75h-31.1v-175.05l31.1-14.77V3817.19z M10205,3777.67
			l31.1-13.09v27.6l-31.1,13.09V3777.67z M10205,3814.86l31.1-13.09v131h-31.1V3814.86z M10352.84,3846.86
			c-5.27-5.61-10.41-9.67-15.42-12.18c-5.01-2.5-10.54-3.76-16.59-3.76c-6.48,0-12.33,1.58-17.56,4.73
			c-5.23,3.15-9.44,7.67-12.63,13.54v-0.13c-3.02,6.05-4.54,12.61-4.54,19.7c0,7.08,1.49,13.5,4.47,19.24
			c2.98,5.75,7.15,10.35,12.5,13.8c5.35,3.2,11.27,4.79,17.75,4.79c5.96,0,11.77-1.4,17.43-4.21c5.66-2.81,10.52-6.72,14.58-11.73
			v37.96c-9.33,4.92-19.74,7.39-31.23,7.39c-12.87,0-24.42-2.83-34.66-8.49c-10.24-5.66-18.25-13.67-24.04-24.04
			c-5.7-10.11-8.55-21.68-8.55-34.73c0-12.87,2.85-24.44,8.55-34.73c5.7-10.28,13.69-18.31,23.97-24.1
			c10.28-5.61,21.85-8.42,34.73-8.42c11.49,0,21.9,2.46,31.23,7.39V3846.86z M10369.03,3897l4.79-1.17
			c5.35,4.06,11.21,7.04,17.56,8.94c6.35,1.9,13.67,2.85,21.96,2.85c5.53,0,10.41-0.54,14.64-1.62c4.23-1.08,7.52-2.57,9.85-4.47
			c2.33-1.9,3.5-4.02,3.5-6.35c0-5.87-6.44-9.76-19.31-11.66l-12.7-1.94c-13.74-2.16-24.21-6.46-31.42-12.89
			c-7.21-6.43-10.82-14.75-10.82-24.94c0-7.95,2.35-15.05,7.06-21.31c4.71-6.26,11.38-11.08,20.02-14.45
			c8.29-3.19,17.54-4.79,27.73-4.79c15.55,0,29.54,2.81,41.98,8.42l-0.52,31.36c-5.62-3.8-12.16-6.87-19.63-9.2
			c-7.47-2.33-14.45-3.5-20.93-3.5c-4.67,0-8.86,0.56-12.57,1.68c-3.72,1.12-6.7,2.68-8.94,4.66h0.13c-1.9,1.81-2.85,3.76-2.85,5.83
			c0,2.77,1.34,4.95,4.02,6.54c2.68,1.6,7.43,3,14.25,4.21l12.57,2.2c28.85,5.01,43.28,17.71,43.28,38.09
			c0,8.21-2.61,15.48-7.84,21.83c-5.23,6.35-12.59,11.21-22.09,14.58c-8.81,3.2-19,4.79-30.58,4.79c-7.95,0-15.74-0.89-23.39-2.66
			c-7.65-1.77-14.58-4.34-20.8-7.71l0.39-26.17L10369.03,3897z"/>
	</g>
	<g id="Layer_11">
		<path d="M9487.01,2943.56l-110.33-166.45l59.48-10.48l9.83-55.74l-169.9-156.46l111.08,163.2l-59.48,10.48l-10.49,59.49
			L9487.01,2943.56 M9627.63,2654.8c12.26,5.31,22.59,12.85,30.97,22.61l-23.71,23.06c-5.62-7.17-12.5-12.7-20.67-16.58
			s-17-5.83-26.5-5.83c-11.49,0-21.92,2.7-31.29,8.1c-9.37,5.4-16.78,12.98-22.22,22.74c-5.44,9.85-8.16,20.69-8.16,32.52
			c0,11.75,2.5,22.35,7.51,31.81c5.01,9.46,12.09,16.87,21.25,22.22c8.81,5.36,18.92,8.03,30.32,8.03
			c14.86,0,26.82-3.54,35.89-10.62c9.07-7.08,14.86-17.45,17.36-31.1h-48.07l12.83-30.45h70.23l0.39,8.68
			c0,17.8-3.61,33.84-10.82,48.14c-7.21,14.3-17.38,25.55-30.51,33.75c-13.3,8.47-29.07,12.7-47.29,12.7
			c-16.59,0-31.92-3.82-46-11.47c-14.08-7.64-25.31-18.25-33.69-31.81c-8.81-14.17-13.22-30.79-13.22-49.89
			c0-17.54,4.12-33.54,12.38-48.01c8.25-14.47,19.76-25.89,34.53-34.27c14.68-8.21,30.88-12.31,48.59-12.31
			C9602.06,2646.83,9615.36,2649.49,9627.63,2654.8z M9772.49,2740.38c-1.38-1.99-4.3-3.65-8.75-4.99
			c-4.45-1.34-9.09-2.01-13.93-2.01c-5.62,0-10.47,1.17-14.58,3.5c-4.1,2.33-7.28,5.79-9.52,10.37c-2.33,4.67-3.5,10.19-3.5,16.59
			v70.23h-30.97v-119.08l30.71-13.22v14.77c8.03-8.55,19.39-12.83,34.08-12.83c7.17,0,12.65,0.74,16.46,2.2V2740.38z
			 M9875.37,2833.16v-13.22c-9.24,9.42-21.21,14.12-35.89,14.12c-11.49,0-21.98-2.83-31.49-8.49c-9.5-5.66-17.02-13.54-22.55-23.65
			c-5.44-9.85-8.16-20.9-8.16-33.17c0-12.09,2.68-23.15,8.03-33.17c5.35-10.02,12.83-17.88,22.42-23.58
			c9.5-5.7,20.08-8.55,31.75-8.55c7.26,0,13.93,1.21,20.02,3.63c6.09,2.42,11.38,6,15.87,10.75v-2.07l30.32-13.22v130.61H9875.37z
			 M9823.73,2736.75c-5.23,3.11-9.31,7.43-12.24,12.96c-2.94,5.53-4.41,11.88-4.41,19.05c0,7.08,1.45,13.39,4.34,18.92
			c2.89,5.53,6.97,9.85,12.25,12.96v0.13c5.01,3.11,10.93,4.66,17.75,4.66c6.56,0,12.46-1.55,17.69-4.66
			c5.22-3.11,9.31-7.47,12.24-13.09c2.94-5.53,4.41-11.83,4.41-18.92c0-7-1.45-13.3-4.34-18.92c-2.89-5.61-6.98-9.98-12.24-13.09
			c-5.27-3.11-11.19-4.66-17.75-4.66C9834.85,2732.09,9828.96,2733.64,9823.73,2736.75z M10020.94,2711.75
			c9.63,5.7,17.21,13.65,22.74,23.84c5.44,10.02,8.16,21.25,8.16,33.69c0,12.18-2.7,23.32-8.1,33.43
			c-5.4,10.11-12.94,18.01-22.61,23.71c-9.42,5.87-20.08,8.81-32,8.81c-15.03,0-27.08-4.79-36.15-14.38v64.79h-30.45v-170.26
			l30.45-13.22v15.42c4.58-4.75,9.93-8.34,16.07-10.75c6.13-2.42,12.83-3.63,20.08-3.63
			C10000.71,2703.19,10011.31,2706.04,10020.94,2711.75z M9969.44,2736.88c-5.27,3.11-9.42,7.52-12.44,13.22
			c-3.03,5.79-4.54,12.18-4.54,19.18c0,7.08,1.47,13.43,4.41,19.05c2.94,5.62,7.08,10.02,12.44,13.22
			c5.27,3.11,11.23,4.66,17.88,4.66c6.65,0,12.61-1.53,17.88-4.6c5.27-3.07,9.41-7.45,12.44-13.15c2.94-5.53,4.41-11.92,4.41-19.18
			c0-7.08-1.45-13.45-4.34-19.11c-2.9-5.66-7.02-10.08-12.38-13.28c-5.27-3.11-11.27-4.66-18.01-4.66
			C9980.62,2732.22,9974.7,2733.77,9969.44,2736.88z M10097.19,2717.19c4.32-4.66,9.52-8.23,15.61-10.69s12.85-3.69,20.28-3.69
			c10.02,0,19.07,2.18,27.15,6.54c8.08,4.36,14.36,10.48,18.85,18.33c4.32,7.95,6.43,16.8,6.35,26.56l-1.81,79.82h-31.1l1.81-71.14
			c0.26-9.59-1.99-17.06-6.74-22.42c-4.75-5.35-11.49-8.03-20.21-8.03c-5.96,0-11.21,1.25-15.74,3.76
			c-4.54,2.51-8.06,6.09-10.56,10.76c-2.59,4.75-3.89,10.19-3.89,16.33v70.75h-31.1v-175.05l31.1-14.77V2717.19z M10205,2677.67
			l31.1-13.09v27.6l-31.1,13.09V2677.67z M10205,2714.86l31.1-13.09v131h-31.1V2714.86z M10352.84,2746.86
			c-5.27-5.61-10.41-9.67-15.42-12.18c-5.01-2.5-10.54-3.76-16.59-3.76c-6.48,0-12.33,1.58-17.56,4.73
			c-5.23,3.15-9.44,7.67-12.63,13.54v-0.13c-3.02,6.05-4.54,12.61-4.54,19.7c0,7.08,1.49,13.5,4.47,19.24
			c2.98,5.75,7.15,10.35,12.5,13.8c5.35,3.2,11.27,4.79,17.75,4.79c5.96,0,11.77-1.4,17.43-4.21c5.66-2.81,10.52-6.72,14.58-11.73
			v37.96c-9.33,4.92-19.74,7.39-31.23,7.39c-12.87,0-24.42-2.83-34.66-8.49c-10.24-5.66-18.25-13.67-24.04-24.04
			c-5.7-10.11-8.55-21.68-8.55-34.73c0-12.87,2.85-24.44,8.55-34.73c5.7-10.28,13.69-18.31,23.97-24.1
			c10.28-5.61,21.85-8.42,34.73-8.42c11.49,0,21.9,2.46,31.23,7.39V2746.86z M10369.03,2797l4.79-1.17
			c5.35,4.06,11.21,7.04,17.56,8.94c6.35,1.9,13.67,2.85,21.96,2.85c5.53,0,10.41-0.54,14.64-1.62c4.23-1.08,7.52-2.57,9.85-4.47
			c2.33-1.9,3.5-4.02,3.5-6.35c0-5.87-6.44-9.76-19.31-11.66l-12.7-1.94c-13.74-2.16-24.21-6.46-31.42-12.89
			c-7.21-6.43-10.82-14.75-10.82-24.94c0-7.95,2.35-15.05,7.06-21.31c4.71-6.26,11.38-11.08,20.02-14.45
			c8.29-3.19,17.54-4.79,27.73-4.79c15.55,0,29.54,2.81,41.98,8.42l-0.52,31.36c-5.62-3.8-12.16-6.87-19.63-9.2
			c-7.47-2.33-14.45-3.5-20.93-3.5c-4.67,0-8.86,0.56-12.57,1.68c-3.72,1.12-6.7,2.68-8.94,4.66h0.13c-1.9,1.81-2.85,3.76-2.85,5.83
			c0,2.77,1.34,4.95,4.02,6.54c2.68,1.6,7.43,3,14.25,4.21l12.57,2.2c28.85,5.01,43.28,17.71,43.28,38.09
			c0,8.21-2.61,15.48-7.84,21.83c-5.23,6.35-12.59,11.21-22.09,14.58c-8.81,3.2-19,4.79-30.58,4.79c-7.95,0-15.74-0.89-23.39-2.66
			c-7.65-1.77-14.58-4.34-20.8-7.71l0.39-26.17L10369.03,2797z"/>
	</g>
	<g id="Layer_12">
		<linearGradient id="SVGID_1_" gradientUnits="userSpaceOnUse" x1="9276.085" y1="1649" x2="10472.6914" y2="1649">
			<stop  offset="0" style="stop-color:#40D138"/>
			<stop  offset="1" style="stop-color:#217E23"/>
		</linearGradient>
		<path fill="url(#SVGID_1_)" d="M9487.01,1843.56l-110.33-166.45l59.48-10.48l9.83-55.74l-169.9-156.46l111.08,163.2l-59.48,10.48
			l-10.49,59.49L9487.01,1843.56 M9627.63,1554.8c12.26,5.31,22.59,12.85,30.97,22.61l-23.71,23.06
			c-5.62-7.17-12.5-12.7-20.67-16.58s-17-5.83-26.5-5.83c-11.49,0-21.92,2.7-31.29,8.1c-9.37,5.4-16.78,12.98-22.22,22.74
			c-5.44,9.85-8.16,20.69-8.16,32.52c0,11.75,2.5,22.35,7.51,31.81c5.01,9.46,12.09,16.87,21.25,22.22
			c8.81,5.36,18.92,8.03,30.32,8.03c14.86,0,26.82-3.54,35.89-10.62c9.07-7.08,14.86-17.45,17.36-31.1h-48.07l12.83-30.45h70.23
			l0.39,8.68c0,17.8-3.61,33.84-10.82,48.14c-7.21,14.3-17.38,25.55-30.51,33.75c-13.3,8.47-29.07,12.7-47.29,12.7
			c-16.59,0-31.92-3.82-46-11.47c-14.08-7.64-25.31-18.25-33.69-31.81c-8.81-14.17-13.22-30.79-13.22-49.89
			c0-17.54,4.12-33.54,12.38-48.01c8.25-14.47,19.76-25.89,34.53-34.27c14.68-8.21,30.88-12.31,48.59-12.31
			C9602.06,1546.83,9615.36,1549.49,9627.63,1554.8z M9772.49,1640.38c-1.38-1.99-4.3-3.65-8.75-4.99
			c-4.45-1.34-9.09-2.01-13.93-2.01c-5.62,0-10.47,1.17-14.58,3.5c-4.1,2.33-7.28,5.79-9.52,10.37c-2.33,4.67-3.5,10.19-3.5,16.59
			v70.23h-30.97v-119.08l30.71-13.22v14.77c8.03-8.55,19.39-12.83,34.08-12.83c7.17,0,12.65,0.74,16.46,2.2V1640.38z
			 M9875.37,1733.16v-13.22c-9.24,9.42-21.21,14.12-35.89,14.12c-11.49,0-21.98-2.83-31.49-8.49c-9.5-5.66-17.02-13.54-22.55-23.65
			c-5.44-9.85-8.16-20.9-8.16-33.17c0-12.09,2.68-23.15,8.03-33.17c5.35-10.02,12.83-17.88,22.42-23.58
			c9.5-5.7,20.08-8.55,31.75-8.55c7.26,0,13.93,1.21,20.02,3.63c6.09,2.42,11.38,6,15.87,10.75v-2.07l30.32-13.22v130.61H9875.37z
			 M9823.73,1636.75c-5.23,3.11-9.31,7.43-12.24,12.96c-2.94,5.53-4.41,11.88-4.41,19.05c0,7.08,1.45,13.39,4.34,18.92
			c2.89,5.53,6.97,9.85,12.25,12.96v0.13c5.01,3.11,10.93,4.66,17.75,4.66c6.56,0,12.46-1.55,17.69-4.66
			c5.22-3.11,9.31-7.47,12.24-13.09c2.94-5.53,4.41-11.83,4.41-18.92c0-7-1.45-13.3-4.34-18.92c-2.89-5.61-6.98-9.98-12.24-13.09
			c-5.27-3.11-11.19-4.66-17.75-4.66C9834.85,1632.09,9828.96,1633.64,9823.73,1636.75z M10020.94,1611.75
			c9.63,5.7,17.21,13.65,22.74,23.84c5.44,10.02,8.16,21.25,8.16,33.69c0,12.18-2.7,23.32-8.1,33.43
			c-5.4,10.11-12.94,18.01-22.61,23.71c-9.42,5.87-20.08,8.81-32,8.81c-15.03,0-27.08-4.79-36.15-14.38v64.79h-30.45v-170.26
			l30.45-13.22v15.42c4.58-4.75,9.93-8.34,16.07-10.75c6.13-2.42,12.83-3.63,20.08-3.63
			C10000.71,1603.19,10011.31,1606.04,10020.94,1611.75z M9969.44,1636.88c-5.27,3.11-9.42,7.52-12.44,13.22
			c-3.03,5.79-4.54,12.18-4.54,19.18c0,7.08,1.47,13.43,4.41,19.05c2.94,5.62,7.08,10.02,12.44,13.22
			c5.27,3.11,11.23,4.66,17.88,4.66c6.65,0,12.61-1.53,17.88-4.6c5.27-3.07,9.41-7.45,12.44-13.15c2.94-5.53,4.41-11.92,4.41-19.18
			c0-7.08-1.45-13.45-4.34-19.11c-2.9-5.66-7.02-10.08-12.38-13.28c-5.27-3.11-11.27-4.66-18.01-4.66
			C9980.62,1632.22,9974.7,1633.77,9969.44,1636.88z M10097.19,1617.19c4.32-4.66,9.52-8.23,15.61-10.69s12.85-3.69,20.28-3.69
			c10.02,0,19.07,2.18,27.15,6.54c8.08,4.36,14.36,10.48,18.85,18.33c4.32,7.95,6.43,16.8,6.35,26.56l-1.81,79.82h-31.1l1.81-71.14
			c0.26-9.59-1.99-17.06-6.74-22.42c-4.75-5.35-11.49-8.03-20.21-8.03c-5.96,0-11.21,1.25-15.74,3.76
			c-4.54,2.51-8.06,6.09-10.56,10.76c-2.59,4.75-3.89,10.19-3.89,16.33v70.75h-31.1v-175.05l31.1-14.77V1617.19z M10205,1577.67
			l31.1-13.09v27.6l-31.1,13.09V1577.67z M10205,1614.86l31.1-13.09v131h-31.1V1614.86z M10352.84,1646.86
			c-5.27-5.61-10.41-9.67-15.42-12.18c-5.01-2.5-10.54-3.76-16.59-3.76c-6.48,0-12.33,1.58-17.56,4.73
			c-5.23,3.15-9.44,7.67-12.63,13.54v-0.13c-3.02,6.05-4.54,12.61-4.54,19.7c0,7.08,1.49,13.5,4.47,19.24
			c2.98,5.75,7.15,10.35,12.5,13.8c5.35,3.2,11.27,4.79,17.75,4.79c5.96,0,11.77-1.4,17.43-4.21c5.66-2.81,10.52-6.72,14.58-11.73
			v37.96c-9.33,4.92-19.74,7.39-31.23,7.39c-12.87,0-24.42-2.83-34.66-8.49c-10.24-5.66-18.25-13.67-24.04-24.04
			c-5.7-10.11-8.55-21.68-8.55-34.73c0-12.87,2.85-24.44,8.55-34.73c5.7-10.28,13.69-18.31,23.97-24.1
			c10.28-5.61,21.85-8.42,34.73-8.42c11.49,0,21.9,2.46,31.23,7.39V1646.86z M10369.03,1697l4.79-1.17
			c5.35,4.06,11.21,7.04,17.56,8.94c6.35,1.9,13.67,2.85,21.96,2.85c5.53,0,10.41-0.54,14.64-1.62c4.23-1.08,7.52-2.57,9.85-4.47
			c2.33-1.9,3.5-4.02,3.5-6.35c0-5.87-6.44-9.76-19.31-11.66l-12.7-1.94c-13.74-2.16-24.21-6.46-31.42-12.89
			c-7.21-6.43-10.82-14.75-10.82-24.94c0-7.95,2.35-15.05,7.06-21.31c4.71-6.26,11.38-11.08,20.02-14.45
			c8.29-3.19,17.54-4.79,27.73-4.79c15.55,0,29.54,2.81,41.98,8.42l-0.52,31.36c-5.62-3.8-12.16-6.87-19.63-9.2
			c-7.47-2.33-14.45-3.5-20.93-3.5c-4.67,0-8.86,0.56-12.57,1.68c-3.72,1.12-6.7,2.68-8.94,4.66h0.13c-1.9,1.81-2.85,3.76-2.85,5.83
			c0,2.77,1.34,4.95,4.02,6.54c2.68,1.6,7.43,3,14.25,4.21l12.57,2.2c28.85,5.01,43.28,17.71,43.28,38.09
			c0,8.21-2.61,15.48-7.84,21.83c-5.23,6.35-12.59,11.21-22.09,14.58c-8.81,3.2-19,4.79-30.58,4.79c-7.95,0-15.74-0.89-23.39-2.66
			c-7.65-1.77-14.58-4.34-20.8-7.71l0.39-26.17L10369.03,1697z"/>
	</g>
	<g id="Layer_13">
		<path d="M12199.63,210.8c12.26,5.31,22.59,12.85,30.97,22.61l-23.71,23.06c-5.62-7.17-12.5-12.7-20.67-16.58s-17-5.83-26.5-5.83
			c-11.49,0-21.92,2.7-31.29,8.1c-9.37,5.4-16.78,12.98-22.22,22.74c-5.44,9.85-8.16,20.69-8.16,32.52c0,11.75,2.5,22.35,7.51,31.81
			c5.01,9.46,12.09,16.87,21.25,22.22c8.81,5.36,18.92,8.03,30.32,8.03c14.86,0,26.82-3.54,35.89-10.62
			c9.07-7.08,14.86-17.45,17.36-31.1h-48.07l12.83-30.45h70.23l0.39,8.68c0,17.8-3.61,33.84-10.82,48.14
			c-7.21,14.3-17.38,25.55-30.51,33.75c-13.3,8.47-29.07,12.7-47.29,12.7c-16.59,0-31.92-3.82-46-11.47
			c-14.08-7.64-25.31-18.25-33.69-31.81c-8.81-14.17-13.22-30.79-13.22-49.89c0-17.54,4.12-33.54,12.38-48.01
			c8.25-14.47,19.76-25.89,34.53-34.27c14.68-8.21,30.88-12.31,48.59-12.31C12174.06,202.83,12187.36,205.49,12199.63,210.8z
			 M12344.49,296.38c-1.38-1.99-4.3-3.65-8.75-4.99c-4.45-1.34-9.09-2.01-13.93-2.01c-5.62,0-10.47,1.17-14.58,3.5
			c-4.1,2.33-7.28,5.79-9.52,10.37c-2.33,4.67-3.5,10.19-3.5,16.59v70.23h-30.97V270.98l30.71-13.22v14.77
			c8.03-8.55,19.39-12.83,34.08-12.83c7.17,0,12.65,0.74,16.46,2.2V296.38z M12447.37,389.16v-13.22
			c-9.24,9.42-21.21,14.12-35.89,14.12c-11.49,0-21.98-2.83-31.49-8.49c-9.5-5.66-17.02-13.54-22.55-23.65
			c-5.44-9.85-8.16-20.9-8.16-33.17c0-12.09,2.68-23.15,8.03-33.17c5.35-10.02,12.83-17.88,22.42-23.58
			c9.5-5.7,20.08-8.55,31.75-8.55c7.26,0,13.93,1.21,20.02,3.63c6.09,2.42,11.38,6,15.87,10.75v-2.07l30.32-13.22v130.61H12447.37z
			 M12395.73,292.75c-5.23,3.11-9.31,7.43-12.24,12.96c-2.94,5.53-4.41,11.88-4.41,19.05c0,7.08,1.45,13.39,4.34,18.92
			c2.89,5.53,6.97,9.85,12.25,12.96v0.13c5.01,3.11,10.93,4.66,17.75,4.66c6.56,0,12.46-1.55,17.69-4.66
			c5.22-3.11,9.31-7.47,12.24-13.09c2.94-5.53,4.41-11.83,4.41-18.92c0-7-1.45-13.3-4.34-18.92c-2.89-5.61-6.98-9.98-12.24-13.09
			c-5.27-3.11-11.19-4.66-17.75-4.66C12406.85,288.09,12400.96,289.64,12395.73,292.75z M12592.94,267.75
			c9.63,5.7,17.21,13.65,22.74,23.84c5.44,10.02,8.16,21.25,8.16,33.69c0,12.18-2.7,23.32-8.1,33.43
			c-5.4,10.11-12.94,18.01-22.61,23.71c-9.42,5.87-20.08,8.81-32,8.81c-15.03,0-27.08-4.79-36.15-14.38v64.79h-30.45V271.37
			l30.45-13.22v15.42c4.58-4.75,9.93-8.34,16.07-10.75c6.13-2.42,12.83-3.63,20.08-3.63
			C12572.71,259.19,12583.31,262.04,12592.94,267.75z M12541.44,292.88c-5.27,3.11-9.42,7.52-12.44,13.22
			c-3.03,5.79-4.54,12.18-4.54,19.18c0,7.08,1.47,13.43,4.41,19.05c2.94,5.62,7.08,10.02,12.44,13.22
			c5.27,3.11,11.23,4.66,17.88,4.66c6.65,0,12.61-1.53,17.88-4.6c5.27-3.07,9.41-7.45,12.44-13.15c2.94-5.53,4.41-11.92,4.41-19.18
			c0-7.08-1.45-13.45-4.34-19.11c-2.9-5.66-7.02-10.08-12.38-13.28c-5.27-3.11-11.27-4.66-18.01-4.66
			C12552.62,288.22,12546.7,289.77,12541.44,292.88z M12669.19,273.19c4.32-4.66,9.52-8.23,15.61-10.69s12.85-3.69,20.28-3.69
			c10.02,0,19.07,2.18,27.15,6.54c8.08,4.36,14.36,10.48,18.85,18.33c4.32,7.95,6.43,16.8,6.35,26.56l-1.81,79.82h-31.1l1.81-71.14
			c0.26-9.59-1.99-17.06-6.74-22.42c-4.75-5.35-11.49-8.03-20.21-8.03c-5.96,0-11.21,1.25-15.74,3.76
			c-4.54,2.51-8.06,6.09-10.56,10.76c-2.59,4.75-3.89,10.19-3.89,16.33v70.75h-31.1V215.01l31.1-14.77V273.19z M12777,233.67
			l31.1-13.09v27.6l-31.1,13.09V233.67z M12777,270.86l31.1-13.09v131h-31.1V270.86z M12924.84,302.86
			c-5.27-5.61-10.41-9.67-15.42-12.18c-5.01-2.5-10.54-3.76-16.59-3.76c-6.48,0-12.33,1.58-17.56,4.73
			c-5.23,3.15-9.44,7.67-12.63,13.54v-0.13c-3.02,6.05-4.54,12.61-4.54,19.7c0,7.08,1.49,13.5,4.47,19.24
			c2.98,5.75,7.15,10.35,12.5,13.8c5.35,3.2,11.27,4.79,17.75,4.79c5.96,0,11.77-1.4,17.43-4.21c5.66-2.81,10.52-6.72,14.58-11.73
			v37.96c-9.33,4.92-19.74,7.39-31.23,7.39c-12.87,0-24.42-2.83-34.66-8.49c-10.24-5.66-18.25-13.67-24.04-24.04
			c-5.7-10.11-8.55-21.68-8.55-34.73c0-12.87,2.85-24.44,8.55-34.73c5.7-10.28,13.69-18.31,23.97-24.1
			c10.28-5.61,21.85-8.42,34.73-8.42c11.49,0,21.9,2.46,31.23,7.39V302.86z M12941.03,353l4.79-1.17
			c5.35,4.06,11.21,7.04,17.56,8.94c6.35,1.9,13.67,2.85,21.96,2.85c5.53,0,10.41-0.54,14.64-1.62c4.23-1.08,7.52-2.57,9.85-4.47
			c2.33-1.9,3.5-4.02,3.5-6.35c0-5.87-6.44-9.76-19.31-11.66l-12.7-1.94c-13.74-2.16-24.21-6.46-31.42-12.89
			c-7.21-6.43-10.82-14.75-10.82-24.94c0-7.95,2.35-15.05,7.06-21.31c4.71-6.26,11.38-11.08,20.02-14.45
			c8.29-3.19,17.54-4.79,27.73-4.79c15.55,0,29.54,2.81,41.98,8.42l-0.52,31.36c-5.62-3.8-12.16-6.87-19.63-9.2
			c-7.47-2.33-14.45-3.5-20.93-3.5c-4.67,0-8.86,0.56-12.57,1.68c-3.72,1.12-6.7,2.68-8.94,4.66h0.13c-1.9,1.81-2.85,3.76-2.85,5.83
			c0,2.77,1.34,4.95,4.02,6.54c2.68,1.6,7.43,3,14.25,4.21l12.57,2.2c28.85,5.01,43.28,17.71,43.28,38.09
			c0,8.21-2.61,15.48-7.84,21.83c-5.23,6.35-12.59,11.21-22.09,14.58c-8.81,3.2-19,4.79-30.58,4.79c-7.95,0-15.74-0.89-23.39-2.66
			c-7.65-1.77-14.58-4.34-20.8-7.71l0.39-26.17L12941.03,353z"/>
		<linearGradient id="SVGID_2_" gradientUnits="userSpaceOnUse" x1="11853.1729" y1="305" x2="12064.0996" y2="305">
			<stop  offset="0" style="stop-color:#40D138"/>
			<stop  offset="1" style="stop-color:#217E23"/>
		</linearGradient>
		<polyline fill="url(#SVGID_2_)" points="12064.1,499.56 11953.77,333.12 12013.24,322.64 12023.07,266.9 11853.17,110.44 
			11964.26,273.64 11904.78,284.12 11894.29,343.61 12064.1,499.56 		"/>
		<text transform="matrix(1 0 0 1 12283.0752 130.2178)" font-family="'Ambient-Regular'" font-size="12px">   </text>
	</g>
	<g id="Layer_9">
		<path fill="#F8F8F8" d="M9627.63-642.2c12.26,5.31,22.59,12.85,30.97,22.61l-23.71,23.06c-5.62-7.17-12.5-12.7-20.67-16.58
			s-17-5.83-26.5-5.83c-11.49,0-21.92,2.7-31.29,8.1c-9.37,5.4-16.78,12.98-22.22,22.74c-5.44,9.85-8.16,20.69-8.16,32.52
			c0,11.75,2.5,22.35,7.51,31.81c5.01,9.46,12.09,16.87,21.25,22.22c8.81,5.36,18.92,8.03,30.32,8.03
			c14.86,0,26.82-3.54,35.89-10.62c9.07-7.08,14.86-17.45,17.36-31.1h-48.07l12.83-30.45h70.23l0.39,8.68
			c0,17.8-3.61,33.84-10.82,48.14c-7.21,14.3-17.38,25.55-30.51,33.75c-13.3,8.47-29.07,12.7-47.29,12.7
			c-16.59,0-31.92-3.82-46-11.47c-14.08-7.64-25.31-18.25-33.69-31.81c-8.81-14.17-13.22-30.79-13.22-49.89
			c0-17.54,4.12-33.54,12.38-48.01c8.25-14.47,19.76-25.89,34.53-34.27c14.68-8.21,30.88-12.31,48.59-12.31
			C9602.06-650.17,9615.36-647.51,9627.63-642.2z M9772.49-556.62c-1.38-1.99-4.3-3.65-8.75-4.99c-4.45-1.34-9.09-2.01-13.93-2.01
			c-5.62,0-10.47,1.17-14.58,3.5c-4.1,2.33-7.28,5.79-9.52,10.37c-2.33,4.67-3.5,10.19-3.5,16.59v70.23h-30.97v-119.08l30.71-13.22
			v14.77c8.03-8.55,19.39-12.83,34.08-12.83c7.17,0,12.65,0.74,16.46,2.2V-556.62z M9875.37-463.84v-13.22
			c-9.24,9.42-21.21,14.12-35.89,14.12c-11.49,0-21.98-2.83-31.49-8.49c-9.5-5.66-17.02-13.54-22.55-23.65
			c-5.44-9.85-8.16-20.9-8.16-33.17c0-12.09,2.68-23.15,8.03-33.17c5.35-10.02,12.83-17.88,22.42-23.58
			c9.5-5.7,20.08-8.55,31.75-8.55c7.26,0,13.93,1.21,20.02,3.63c6.09,2.42,11.38,6,15.87,10.75v-2.07l30.32-13.22v130.61H9875.37z
			 M9823.73-560.25c-5.23,3.11-9.31,7.43-12.24,12.96c-2.94,5.53-4.41,11.88-4.41,19.05c0,7.08,1.45,13.39,4.34,18.92
			c2.89,5.53,6.97,9.85,12.25,12.96v0.13c5.01,3.11,10.93,4.66,17.75,4.66c6.56,0,12.46-1.55,17.69-4.66
			c5.22-3.11,9.31-7.47,12.24-13.09c2.94-5.53,4.41-11.83,4.41-18.92c0-7-1.45-13.3-4.34-18.92c-2.89-5.61-6.98-9.98-12.24-13.09
			c-5.27-3.11-11.19-4.66-17.75-4.66C9834.85-564.91,9828.96-563.36,9823.73-560.25z M10020.94-585.25
			c9.63,5.7,17.21,13.65,22.74,23.84c5.44,10.02,8.16,21.25,8.16,33.69c0,12.18-2.7,23.32-8.1,33.43
			c-5.4,10.11-12.94,18.01-22.61,23.71c-9.42,5.87-20.08,8.81-32,8.81c-15.03,0-27.08-4.79-36.15-14.38v64.79h-30.45v-170.26
			l30.45-13.22v15.42c4.58-4.75,9.93-8.34,16.07-10.75c6.13-2.42,12.83-3.63,20.08-3.63
			C10000.71-593.81,10011.31-590.96,10020.94-585.25z M9969.44-560.12c-5.27,3.11-9.42,7.52-12.44,13.22
			c-3.03,5.79-4.54,12.18-4.54,19.18c0,7.08,1.47,13.43,4.41,19.05c2.94,5.62,7.08,10.02,12.44,13.22
			c5.27,3.11,11.23,4.66,17.88,4.66c6.65,0,12.61-1.53,17.88-4.6c5.27-3.07,9.41-7.45,12.44-13.15c2.94-5.53,4.41-11.92,4.41-19.18
			c0-7.08-1.45-13.45-4.34-19.11c-2.9-5.66-7.02-10.08-12.38-13.28c-5.27-3.11-11.27-4.66-18.01-4.66
			C9980.62-564.78,9974.7-563.23,9969.44-560.12z M10097.19-579.81c4.32-4.66,9.52-8.23,15.61-10.69s12.85-3.69,20.28-3.69
			c10.02,0,19.07,2.18,27.15,6.54c8.08,4.36,14.36,10.48,18.85,18.33c4.32,7.95,6.43,16.8,6.35,26.56l-1.81,79.82h-31.1l1.81-71.14
			c0.26-9.59-1.99-17.06-6.74-22.42c-4.75-5.35-11.49-8.03-20.21-8.03c-5.96,0-11.21,1.25-15.74,3.76
			c-4.54,2.51-8.06,6.09-10.56,10.76c-2.59,4.75-3.89,10.19-3.89,16.33v70.75h-31.1v-175.05l31.1-14.77V-579.81z M10205-619.33
			l31.1-13.09v27.6l-31.1,13.09V-619.33z M10205-582.14l31.1-13.09v131h-31.1V-582.14z M10352.84-550.14
			c-5.27-5.61-10.41-9.67-15.42-12.18c-5.01-2.5-10.54-3.76-16.59-3.76c-6.48,0-12.33,1.58-17.56,4.73
			c-5.23,3.15-9.44,7.67-12.63,13.54v-0.13c-3.02,6.05-4.54,12.61-4.54,19.7c0,7.08,1.49,13.5,4.47,19.24
			c2.98,5.75,7.15,10.35,12.5,13.8c5.35,3.2,11.27,4.79,17.75,4.79c5.96,0,11.77-1.4,17.43-4.21c5.66-2.81,10.52-6.72,14.58-11.73
			v37.96c-9.33,4.92-19.74,7.39-31.23,7.39c-12.87,0-24.42-2.83-34.66-8.49c-10.24-5.66-18.25-13.67-24.04-24.04
			c-5.7-10.11-8.55-21.68-8.55-34.73c0-12.87,2.85-24.44,8.55-34.73c5.7-10.28,13.69-18.31,23.97-24.1
			c10.28-5.61,21.85-8.42,34.73-8.42c11.49,0,21.9,2.46,31.23,7.39V-550.14z M10369.03-500l4.79-1.17
			c5.35,4.06,11.21,7.04,17.56,8.94c6.35,1.9,13.67,2.85,21.96,2.85c5.53,0,10.41-0.54,14.64-1.62c4.23-1.08,7.52-2.57,9.85-4.47
			c2.33-1.9,3.5-4.02,3.5-6.35c0-5.87-6.44-9.76-19.31-11.66l-12.7-1.94c-13.74-2.16-24.21-6.46-31.42-12.89
			c-7.21-6.43-10.82-14.75-10.82-24.94c0-7.95,2.35-15.05,7.06-21.31c4.71-6.26,11.38-11.08,20.02-14.45
			c8.29-3.19,17.54-4.79,27.73-4.79c15.55,0,29.54,2.81,41.98,8.42l-0.52,31.36c-5.62-3.8-12.16-6.87-19.63-9.2
			c-7.47-2.33-14.45-3.5-20.93-3.5c-4.67,0-8.86,0.56-12.57,1.68c-3.72,1.12-6.7,2.68-8.94,4.66h0.13c-1.9,1.81-2.85,3.76-2.85,5.83
			c0,2.77,1.34,4.95,4.02,6.54c2.68,1.6,7.43,3,14.25,4.21l12.57,2.2c28.85,5.01,43.28,17.71,43.28,38.09
			c0,8.21-2.61,15.48-7.84,21.83c-5.23,6.35-12.59,11.21-22.09,14.58c-8.81,3.2-19,4.79-30.58,4.79c-7.95,0-15.74-0.89-23.39-2.66
			c-7.65-1.77-14.58-4.34-20.8-7.71l0.39-26.17L10369.03-500z"/>
		<linearGradient id="SVGID_3_" gradientUnits="userSpaceOnUse" x1="9281.1729" y1="-548" x2="9492.0996" y2="-548">
			<stop  offset="0" style="stop-color:#40D138"/>
			<stop  offset="1" style="stop-color:#217E23"/>
		</linearGradient>
		<polyline fill="url(#SVGID_3_)" points="9492.1,-353.44 9381.77,-519.88 9441.24,-530.36 9451.07,-586.1 9281.17,-742.56 
			9392.26,-579.36 9332.78,-568.88 9322.29,-509.39 9492.1,-353.44 		"/>
	</g>
</g>
<g id="Names">
	<g id="White_1_">
		
			<text transform="matrix(1 0 0 1 8005.0664 3933.0166)" fill="#F8F8F8" font-family="'Ambient-Bold'" font-size="256.3948px" letter-spacing="6">Gustavo</text>
		<polyline fill="#F8F8F8" points="8015.47,4047.25 7904.79,3880.27 7964.46,3869.76 7974.32,3813.84 7803.87,3656.87 
			7915.31,3820.6 7855.64,3831.12 7845.12,3890.8 8015.47,4047.25 		"/>
		
			<text transform="matrix(1 0 0 1 7535.0889 3933.0166)" fill="#F8F8F8" font-family="'Ambient-Bold'" font-size="256.3948px" letter-spacing="6">Lui</text>
	</g>
	<g id="Black_1_">
		<text transform="matrix(1 0 0 1 8005.0664 2833.0166)" font-family="'Ambient-Bold'" font-size="256.3948px" letter-spacing="6">Gustavo</text>
		<polyline points="8015.47,2947.25 7904.79,2780.27 7964.46,2769.76 7974.32,2713.84 7803.87,2556.87 7915.31,2720.6 
			7855.64,2731.12 7845.12,2790.8 8015.47,2947.25 		"/>
		<text transform="matrix(1 0 0 1 7535.0889 2833.0166)" font-family="'Ambient-Bold'" font-size="256.3948px" letter-spacing="6">Lui</text>
	</g>
	<g id="Colorful_Black">
		<text transform="matrix(1 0 0 1 8005.0664 633.0166)" font-family="'Ambient-Bold'" font-size="256.3948px" letter-spacing="6">Gustavo</text>
		<linearGradient id="SVGID_4_" gradientUnits="userSpaceOnUse" x1="7803.8701" y1="552.0622" x2="8015.4741" y2="552.0622">
			<stop  offset="0" style="stop-color:#40D138"/>
			<stop  offset="1" style="stop-color:#217E23"/>
		</linearGradient>
		<polyline fill="url(#SVGID_4_)" points="8015.47,747.25 7904.79,580.27 7964.46,569.76 7974.32,513.84 7803.87,356.87 
			7915.31,520.6 7855.64,531.12 7845.12,590.8 8015.47,747.25 		"/>
		<text transform="matrix(1 0 0 1 7535.0889 633.0166)" font-family="'Ambient-Bold'" font-size="256.3948px" letter-spacing="6">Lui</text>
	</g>
	<g id="Colorful_White">
		
			<text transform="matrix(1 0 0 1 8005.0664 -466.9834)" fill="#F8F8F8" font-family="'Ambient-Bold'" font-size="256.3948px" letter-spacing="6">Gustavo</text>
		<linearGradient id="SVGID_5_" gradientUnits="userSpaceOnUse" x1="7803.8701" y1="-547.9378" x2="8015.4741" y2="-547.9378">
			<stop  offset="0" style="stop-color:#40D138"/>
			<stop  offset="1" style="stop-color:#217E23"/>
		</linearGradient>
		<polyline fill="url(#SVGID_5_)" points="8015.47,-352.75 7904.79,-519.73 7964.46,-530.24 7974.32,-586.16 7803.87,-743.13 
			7915.31,-579.4 7855.64,-568.88 7845.12,-509.2 8015.47,-352.75 		"/>
		
			<text transform="matrix(1 0 0 1 7535.0889 -466.9834)" fill="#F8F8F8" font-family="'Ambient-Bold'" font-size="256.3948px" letter-spacing="6">Lui</text>
	</g>
	<linearGradient id="SVGID_6_" gradientUnits="userSpaceOnUse" x1="7542.0527" y1="1649" x2="8963.9473" y2="1649">
		<stop  offset="0" style="stop-color:#40D138"/>
		<stop  offset="1" style="stop-color:#217E23"/>
	</linearGradient>
	<path fill="url(#SVGID_6_)" d="M8144.07,1556.1c12.09,5.24,22.28,12.67,30.54,22.3l-23.39,22.75
		c-5.54-7.07-12.33-12.52-20.38-16.36c-8.05-3.83-16.76-5.75-26.13-5.75c-11.33,0-21.62,2.66-30.86,7.99
		c-9.24,5.33-16.55,12.8-21.92,22.43c-5.37,9.71-8.05,20.4-8.05,32.07c0,11.59,2.47,22.04,7.41,31.37
		c4.94,9.33,11.93,16.63,20.96,21.92c8.69,5.28,18.66,7.92,29.9,7.92c14.65,0,26.45-3.49,35.4-10.48
		c8.94-6.98,14.65-17.21,17.12-30.67h-47.41l12.65-30.03h69.26l0.38,8.56c0,17.55-3.56,33.37-10.67,47.47
		c-7.11,14.1-17.15,25.2-30.1,33.29c-13.12,8.35-28.67,12.52-46.64,12.52c-16.35,0-31.48-3.77-45.36-11.31
		c-13.89-7.54-24.96-18-33.23-31.37c-8.69-13.97-13.03-30.37-13.03-49.2c0-17.29,4.07-33.07,12.2-47.35
		c8.13-14.27,19.49-25.54,34.05-33.8c14.48-8.09,30.46-12.14,47.92-12.14C8118.85,1548.24,8131.97,1550.86,8144.07,1556.1z
		 M8321.05,1676.41c0,11.93-2.56,22.28-7.67,31.05c-5.11,8.78-12.44,15.29-21.98,19.55c-8.86,3.92-18.36,5.88-28.5,5.88
		c-10.99,0-20.81-2.13-29.46-6.39c-8.65-4.26-15.48-10.39-20.51-18.4c-5.45-8.6-8.18-19.17-8.18-31.69v-61.85l30.41-12.78v72.33
		c0,9.8,2.37,17.25,7.09,22.36c4.73,5.11,11.61,7.67,20.64,7.67c9.03,0,15.91-2.56,20.64-7.67c4.73-5.11,7.09-12.57,7.09-22.36
		v-59.55l30.41-12.78V1676.41z M8334.98,1696.34l4.73-1.15c5.28,4.01,11.05,6.94,17.32,8.82c6.26,1.87,13.48,2.81,21.66,2.81
		c5.45,0,10.27-0.53,14.44-1.6c4.17-1.06,7.41-2.53,9.71-4.41c2.3-1.87,3.45-3.96,3.45-6.26c0-5.79-6.35-9.63-19.04-11.5
		l-12.52-1.92c-13.54-2.13-23.88-6.37-30.99-12.72c-7.11-6.35-10.67-14.55-10.67-24.6c0-7.84,2.32-14.84,6.96-21.02
		c4.64-6.17,11.22-10.93,19.75-14.25c8.18-3.15,17.29-4.73,27.35-4.73c15.33,0,29.13,2.77,41.4,8.31l-0.51,30.92
		c-5.54-3.75-11.99-6.77-19.36-9.07c-7.37-2.3-14.25-3.45-20.64-3.45c-4.6,0-8.73,0.55-12.39,1.66c-3.66,1.11-6.6,2.64-8.82,4.6
		h0.13c-1.87,1.79-2.81,3.71-2.81,5.75c0,2.73,1.32,4.88,3.96,6.45c2.64,1.58,7.33,2.96,14.06,4.15l12.39,2.17
		c28.45,4.94,42.68,17.46,42.68,37.57c0,8.09-2.58,15.27-7.73,21.53c-5.15,6.26-12.42,11.05-21.79,14.38
		c-8.69,3.15-18.74,4.73-30.16,4.73c-7.84,0-15.53-0.87-23.07-2.62c-7.54-1.75-14.38-4.28-20.51-7.6l0.38-25.81L8334.98,1696.34z
		 M8544.68,1728.29c-9.03,4.34-18.44,6.52-28.24,6.52c-15,0-26.39-4.2-34.18-12.59c-7.79-8.39-11.69-20.68-11.69-36.87v-51.88
		h-24.92l13.16-28.11h11.76v-25.81l30.67-12.91v38.72h44.85l-13.16,28.11h-31.69v51.37c0,6.73,1.51,11.91,4.54,15.53
		c3.02,3.62,7.35,5.43,12.97,5.43c7.84,0,16.48-3.15,25.94-9.46V1728.29z M8647.8,1732v-13.03c-9.12,9.29-20.92,13.93-35.4,13.93
		c-11.33,0-21.68-2.79-31.05-8.37c-9.37-5.58-16.78-13.35-22.23-23.32c-5.37-9.71-8.05-20.62-8.05-32.71
		c0-11.93,2.64-22.83,7.92-32.71c5.28-9.88,12.65-17.63,22.11-23.26c9.37-5.62,19.81-8.43,31.31-8.43c7.16,0,13.74,1.19,19.74,3.58
		c6.01,2.39,11.22,5.92,15.65,10.61v-2.04l29.9-13.03V1732H8647.8z M8596.88,1636.92c-5.15,3.07-9.18,7.33-12.08,12.78
		c-2.9,5.45-4.35,11.71-4.35,18.78c0,6.99,1.43,13.21,4.28,18.66c2.85,5.45,6.88,9.71,12.08,12.78v0.13
		c4.94,3.07,10.77,4.6,17.51,4.6c6.47,0,12.29-1.53,17.44-4.6c5.15-3.07,9.18-7.37,12.08-12.91c2.89-5.45,4.34-11.67,4.34-18.66
		c0-6.9-1.43-13.12-4.28-18.66c-2.86-5.54-6.88-9.84-12.08-12.91c-5.2-3.07-11.03-4.6-17.51-4.6S8602.03,1633.85,8596.88,1636.92z
		 M8793.99,1604.72h32.71l-51.37,127.53h-34.63l-53.42-127.53h33.61l36.93,92.52L8793.99,1604.72z M8931.55,1612.39
		c10.1,5.54,18.04,13.25,23.83,23.13c5.71,9.97,8.56,20.96,8.56,32.97c0,11.84-2.86,22.7-8.56,32.59
		c-5.71,9.88-13.63,17.68-23.77,23.39c-9.97,5.62-21.17,8.43-33.61,8.43c-12.27,0-23.45-2.77-33.54-8.31
		c-10.1-5.54-18-13.25-23.71-23.13c-5.71-9.97-8.56-20.96-8.56-32.97c0-11.93,2.83-22.83,8.5-32.71
		c5.66-9.88,13.61-17.68,23.83-23.38c10.14-5.54,21.29-8.31,33.48-8.31C8910.28,1604.08,8921.46,1606.85,8931.55,1612.39z
		 M8880.05,1636.92c-5.41,3.07-9.65,7.37-12.71,12.91c-3.07,5.62-4.6,11.84-4.6,18.66c0,6.82,1.51,12.97,4.54,18.47
		c3.02,5.49,7.26,9.86,12.72,13.1c5.28,3.07,11.29,4.6,18.02,4.6c6.64,0,12.67-1.53,18.08-4.6c5.41-3.07,9.65-7.37,12.71-12.91
		c3.07-5.62,4.6-11.84,4.6-18.66c0-6.81-1.51-12.97-4.54-18.46c-3.02-5.5-7.27-9.86-12.72-13.1c-5.28-3.07-11.33-4.6-18.15-4.6
		C8891.45,1632.32,8885.46,1633.85,8880.05,1636.92z M8015.79,1843.56l-110.33-166.45l59.48-10.48l9.83-55.74l-169.9-156.46
		l111.08,163.2l-59.48,10.48l-10.49,59.49L8015.79,1843.56 M7574.77,1700.82h75.01L7637,1732h-94.95v-173.15l32.72-12.78V1700.82z
		 M7781.27,1676.41c0,11.93-2.56,22.28-7.67,31.05c-5.11,8.78-12.44,15.29-21.98,19.55c-8.86,3.92-18.36,5.88-28.49,5.88
		c-10.99,0-20.81-2.13-29.46-6.39c-8.65-4.26-15.48-10.39-20.51-18.4c-5.45-8.6-8.18-19.17-8.18-31.69v-61.85l30.41-12.78v72.33
		c0,9.8,2.37,17.25,7.09,22.36c4.73,5.11,11.61,7.67,20.64,7.67c9.02,0,15.91-2.56,20.64-7.67c4.73-5.11,7.09-12.57,7.09-22.36
		v-59.55l30.41-12.78V1676.41z M7798.52,1578.65l30.67-12.91v27.22l-30.67,12.91V1578.65z M7798.52,1615.33l30.67-12.91v129.19
		h-30.67V1615.33z"/>
</g>
<g id="Logos">
	<linearGradient id="Default_2_" gradientUnits="userSpaceOnUse" x1="6781.0591" y1="1649" x2="7024.9409" y2="1649">
		<stop  offset="0" style="stop-color:#40D138"/>
		<stop  offset="1" style="stop-color:#217E23"/>
	</linearGradient>
	<polyline id="Default_1_" fill="url(#Default_2_)" points="7024.94,1873.96 6897.37,1681.51 6966.14,1669.39 6977.51,1604.95 
		6781.06,1424.04 6909.5,1612.74 6840.73,1624.86 6828.6,1693.65 7024.94,1873.96 	"/>
	<polyline id="White" fill="#F8F8F8" points="7024.94,4073.96 6897.37,3881.51 6966.14,3869.39 6977.51,3804.95 6781.06,3624.04 
		6909.5,3812.74 6840.73,3824.86 6828.6,3893.65 7024.94,4073.96 	"/>
	<polyline id="Black" points="7024.94,2973.96 6897.37,2781.51 6966.14,2769.39 6977.51,2704.95 6781.06,2524.04 6909.5,2712.74 
		6840.73,2724.86 6828.6,2793.65 7024.94,2973.96 	"/>
	<g>
		<path d="M406.66,308.18l162.44,149.59l-10.28,58.31l-65.32,11.51l-7.52,1.32l4.22,6.36l104.9,158.25L431,542.82l11.05-62.64
			l65.32-11.51l7.62-1.34l-4.35-6.4L406.66,308.18 M378.06,275.04l128.44,188.7l-68.77,12.12l-12.13,68.79l196.34,180.31
			L494.37,532.51l68.77-12.12l11.37-64.45L378.06,275.04L378.06,275.04z"/>
	</g>
	<g>
		<path fill="#F8F8F8" d="M6809.66-742.82l162.44,149.59l-10.28,58.31l-65.32,11.51l-7.52,1.32l4.22,6.36l104.9,158.25L6834-508.18
			l11.05-62.64l65.32-11.51l7.62-1.34l-4.35-6.4L6809.66-742.82 M6781.06-775.96l128.44,188.7l-68.77,12.12l-12.13,68.79
			l196.34,180.31l-127.57-192.45l68.77-12.12l11.37-64.45L6781.06-775.96L6781.06-775.96z"/>
	</g>
</g>
</svg>
